SplineFontDB: 3.2
FontName: MEh
FullName: MEh
FamilyName: MEh
Weight: Regular
Copyright: 
Version: 2.0
ItalicAngle: 0
UnderlinePosition: -100
UnderlineWidth: 50
Ascent: 800
Descent: 200
InvalidEm: 0
sfntRevision: 0x00020000
LayerCount: 2
Layer: 0 0 "+BBcEMAQ0BD0EOAQ5 +BD8EOwQwBD0A" 1
Layer: 1 0 "+BB8ENQRABDUENAQ9BDgEOQAA +BD8EOwQwBD0A" 0
XUID: [1021 370 2045899877 19757]
StyleMap: 0x0000
FSType: 0
OS2Version: 0
OS2_WeightWidthSlopeOnly: 0
OS2_UseTypoMetrics: 1
CreationTime: 1572353847
ModificationTime: 1665864544
PfmFamily: 17
TTFWeight: 400
TTFWidth: 5
LineGap: 90
VLineGap: 0
OS2TypoAscent: 0
OS2TypoAOffset: 1
OS2TypoDescent: 0
OS2TypoDOffset: 1
OS2TypoLinegap: 90
OS2WinAscent: 0
OS2WinAOffset: 1
OS2WinDescent: 0
OS2WinDOffset: 1
HheadAscent: 0
HheadAOffset: 1
HheadDescent: 0
HheadDOffset: 1
OS2Vendor: 'PfEd'
MarkAttachClasses: 1
DEI: 91125
LangName: 1033
Encoding: UnicodeFull
UnicodeInterp: none
NameList: AGL For New Fonts
DisplaySize: -48
AntiAlias: 1
FitToEm: 0
WinInfo: 1147 31 13
BeginPrivate: 0
EndPrivate
TeXData: 1 0 0 1048576 524288 349525 416643 1048576 349525 783286 444596 497025 792723 393216 433062 380633 303038 157286 324010 404750 52429 2506097 1059062 262144
BeginChars: 1114112 1424

StartChar: one
Encoding: 49 49 0
Width: 400
VWidth: 0
Flags: W
VStem: 120 162<-24.8106 724.286>
LayerCount: 2
Fore
SplineSet
159 -157 m 0
 122 -134 120 -146 120 191 c 0
 120 224 120 260 120 300 c 0
 120 335 120 367 120 396 c 0
 120 757 122 741 167 763 c 0
 181 770 189 773 198 773 c 0
 204 773 210 771 218 769 c 0
 245 762 266 743 276 717 c 0
 280 705 282 568 282 301 c 0
 282 -73 281 -98 270 -122 c 0
 257 -151 229 -168 199 -168 c 0
 186 -168 172 -165 159 -157 c 0
EndSplineSet
Validated: 1
EndChar

StartChar: four
Encoding: 52 52 1
Width: 700
VWidth: 0
Flags: W
HStem: -169 21G<101.5 110> 748 20G<107.5 121.5 575.5 599.5>
VStem: 270 163<260.945 340.157>
LayerCount: 2
Fore
SplineSet
74 -149 m 0
 59 -134 52 -120 52 -104 c 0
 52 -93 56 -80 64 -65 c 0
 70 -52 119 34 173 127 c 0
 227 219 270 297 270 301 c 0
 270 304 222 389 164 491 c 0
 105 592 55 685 54 696 c 0
 54 699 53 701 53 704 c 0
 53 726 66 753 83 762 c 0
 91 766 102 768 113 768 c 0
 130 768 149 763 159 754 c 0
 167 746 213 672 261 589 c 0
 322 483 347 444 354 444 c 1
 355 445 l 2
 359 449 398 516 443 593 c 0
 487 670 531 741 540 751 c 0
 552 763 568 769 583 769 c 0
 616 769 648 744 648 707 c 0
 648 688 628 648 546 505 c 0
 489 407 440 322 435 315 c 0
 434 313 433 311 433 308 c 0
 433 293 453 256 537 111 c 0
 620 -33 648 -82 648 -112 c 0
 648 -124 643 -133 635 -143 c 0
 622 -160 604 -168 585 -168 c 0
 569 -168 552 -162 539 -148 c 0
 530 -140 486 -67 439 14 c 0
 393 95 353 162 351 162 c 0
 349 162 309 96 263 16 c 0
 217 -64 173 -137 164 -146 c 0
 153 -159 140 -165 122 -168 c 0
 116 -169 112 -169 108 -169 c 0
 95 -169 89 -164 74 -149 c 0
EndSplineSet
Validated: 1
EndChar

StartChar: parenleft
Encoding: 40 40 2
Width: 600
VWidth: 0
Flags: W
VStem: 129 91<139.032 437.031>
LayerCount: 2
Fore
SplineSet
326 783 m 4
 333 792 344 796 356 796 c 4
 366 796 377 793 386 785 c 4
 398 775 404 761 404 748 c 4
 404 741 402 734 398 728 c 4
 349 665 307 600 276 530 c 4
 259 493 246 456 236 417 c 4
 227 381 221 344 220 306 c 4
 220 300 220 294 220 288 c 4
 220 257 222 225 228 195 c 4
 235 156 247 118 262 81 c 4
 279 41 300 3 324 -34 c 4
 345 -66 368 -96 392 -126 c 4
 397 -132 400 -140 400 -148 c 4
 400 -160 394 -174 383 -184 c 4
 373 -192 362 -196 351 -196 c 4
 340 -196 330 -192 323 -184 c 4
 296 -152 271 -119 248 -84 c 4
 221 -43 198 1 179 47 c 6
 161 89 148 133 139 178 c 4
 133 213 129 248 129 284 c 4
 129 292 130 301 130 310 c 4
 132 354 138 397 149 439 c 6
 160 483 175 526 193 567 c 4
 229 645 275 717 326 783 c 4
EndSplineSet
Validated: 1
EndChar

StartChar: parenright
Encoding: 41 41 3
Width: 600
VWidth: 0
Flags: W
VStem: 387 91<162.969 460.968>
LayerCount: 2
Fore
SplineSet
215 726 m 4
 210 732 207 740 207 748 c 4
 207 760 213 774 224 784 c 4
 234 792 245 796 256 796 c 4
 267 796 277 792 284 784 c 4
 311 752 336 719 359 684 c 4
 386 643 409 599 428 553 c 4
 446 511 459 467 468 422 c 4
 474 387 478 352 478 316 c 4
 478 308 477 299 477 290 c 4
 475 246 469 203 458 161 c 4
 447 117 432 74 414 33 c 4
 378 -45 332 -117 281 -183 c 4
 274 -192 263 -196 251 -196 c 4
 241 -196 230 -193 221 -185 c 4
 209 -175 203 -161 203 -148 c 4
 203 -141 205 -134 209 -128 c 4
 258 -65 300 0 331 70 c 4
 348 107 361 144 371 183 c 4
 380 219 386 256 387 294 c 4
 387 300 387 306 387 312 c 4
 387 343 385 375 379 405 c 4
 372 444 360 482 345 519 c 4
 328 559 307 597 283 634 c 4
 262 666 239 696 215 726 c 4
EndSplineSet
Validated: 1
EndChar

StartChar: comma
Encoding: 44 44 4
Width: 600
VWidth: 0
Flags: W
HStem: -193 311<294.227 323.677>
VStem: 228 166<-19.3774 90.871>
LayerCount: 2
Fore
SplineSet
311 118 m 0
 357 118 394 81 394 35 c 0
 394 32 394 29 393 26 c 0
 393 24 393 22 392 19 c 0
 391 11 388 3 384 -4 c 2
 323 -174 l 2
 319 -184 308 -193 296 -193 c 0
 294 -193 293 -192 291 -192 c 2
 267 -187 l 2
 257 -185 250 -177 250 -167 c 0
 250 -165 251 -162 252 -159 c 2
 293 -46 l 1
 256 -37 228 -4 228 35 c 0
 228 81 265 118 311 118 c 0
EndSplineSet
Validated: 1
EndChar

StartChar: period
Encoding: 46 46 5
Width: 600
VWidth: 0
Flags: W
HStem: -47 166<244.129 355.871>
VStem: 217 166<-19.871 91.871>
LayerCount: 2
Fore
SplineSet
217 36 m 0
 217 82 254 119 300 119 c 0
 346 119 383 82 383 36 c 0
 383 -10 346 -47 300 -47 c 0
 254 -47 217 -10 217 36 c 0
EndSplineSet
Validated: 1
EndChar

StartChar: guillemotleft
Encoding: 171 171 6
Width: 600
VWidth: 0
Flags: W
HStem: 549 20G<336.5 344 496 503.5>
LayerCount: 2
Fore
SplineSet
500 569 m 0
 507 569 515 566 521 561 c 0
 526 555 529 548 529 540 c 0
 529 532 526 525 521 519 c 2
 301 300 l 1
 521 81 l 2
 526 75 529 68 529 60 c 0
 529 52 526 45 521 39 c 0
 515 34 508 31 500 31 c 0
 492 31 485 34 479 39 c 2
 239 279 l 2
 234 285 231 292 231 300 c 0
 231 308 234 315 239 321 c 0
 240 321 240 321 240 322 c 2
 479 561 l 2
 485 566 492 569 500 569 c 0
340 569 m 0
 348 569 355 566 361 561 c 0
 366 555 369 548 369 540 c 0
 369 532 366 525 361 519 c 2
 141 300 l 1
 361 81 l 2
 366 75 369 68 369 60 c 0
 369 52 366 45 361 39 c 0
 355 34 348 31 340 31 c 0
 332 31 325 34 319 39 c 2
 79 279 l 2
 74 285 71 292 71 300 c 0
 71 308 74 315 79 321 c 0
 80 321 80 321 81 322 c 2
 319 561 l 2
 325 566 333 569 340 569 c 0
EndSplineSet
Validated: 1
EndChar

StartChar: guillemotright
Encoding: 187 187 7
Width: 600
VWidth: 0
Flags: W
HStem: 548 20G<99.75 107.25 259.5 266.5>
LayerCount: 2
Fore
SplineSet
263 29 m 0
 256 29 248 32 242 38 c 0
 236 44 234 51 234 58 c 0
 234 66 236 74 242 79 c 2
 462 299 l 1
 242 518 l 2
 236 524 234 531 234 538 c 0
 234 546 236 554 242 559 c 0
 249 564 256 568 263 568 c 0
 270 568 278 565 284 559 c 2
 524 319 l 2
 530 314 532 306 532 298 c 0
 532 291 530 284 524 278 c 0
 523 278 523 277 523 277 c 1
 284 38 l 2
 278 32 271 29 263 29 c 0
103 29 m 0
 96 29 88 32 83 38 c 0
 77 44 74 51 74 58.5 c 0
 74 66 77 74 83 79 c 2
 302 299 l 1
 83 518 l 2
 77 524 74 531 74 538.5 c 0
 74 546 77 553 83 559 c 0
 88 564 96 568 103.5 568 c 0
 111 568 118 565 124 559 c 2
 364 319 l 2
 370 314 372 306 372 298 c 0
 372 291 370 284 364 278 c 2
 363 277 l 1
 124 38 l 2
 118 32 111 29 103 29 c 0
EndSplineSet
Validated: 1
EndChar

StartChar: Odieresis
Encoding: 214 214 8
Width: 1000
VWidth: 0
Flags: W
HStem: -170 120<352.912 589.377> 61 116<402.338 541.787> 230 132<135 245.824 694.176 811> 426 113<403.805 540.395> 640 130<352.991 589.377>
VStem: 0 347<236.19 360.319> 596 344<236.19 360.319>
LayerCount: 2
Fore
SplineSet
470 770 m 0
 729 770 940 559 940 300 c 0
 940 41 729 -170 470 -170 c 0
 211 -170 0 41 0 300 c 0
 0 559 211 770 470 770 c 0
472 640 m 0
 305 640 166 520 135 362 c 1
 240 362 l 1
 267 464 360 539 470 539 c 0
 580 539 673 464 700 362 c 1
 811 362 l 1
 780 520 640 640 472 640 c 0
472 426 m 0
 403 426 347 370 347 302 c 0
 347 233 403 177 472 177 c 0
 541 177 596 233 596 302 c 0
 596 370 541 426 472 426 c 0
134 230 m 1
 165 71 305 -50 472 -50 c 0
 640 -50 780 71 811 230 c 1
 698 230 l 0
 668 132 577 61 470 61 c 0
 363 61 272 132 242 230 c 1
 134 230 l 1
EndSplineSet
Validated: 1
EndChar

StartChar: Udieresis
Encoding: 220 220 9
Width: 1000
VWidth: 0
Flags: W
HStem: -170 120<352.912 589.377> 230 132<135 301.047 646.953 810> 407 20G<440 508> 640 130<352.991 589.298>
VStem: 0 318<252.04 336.089> 351 246<234.199 372.557> 630 310<252.04 336.089>
LayerCount: 2
Fore
SplineSet
470 770 m 0
 729 770 940 559 940 300 c 0
 940 41 729 -170 470 -170 c 0
 211 -170 0 41 0 300 c 0
 0 559 211 770 470 770 c 0
472 640 m 0
 305 640 166 520 135 362 c 1
 252 362 l 2
 289 362 318 332 318 296 c 0
 318 259 289 230 252 230 c 2
 252 230 200 230 165 230 c 0
 147 230 134 230 134 230 c 1
 165 71 305 -50 472 -50 c 0
 640 -50 780 71 811 230 c 1
 696 230 l 2
 659 230 630 259 630 296 c 0
 630 332 659 362 696 362 c 2
 810 362 l 1
 779 520 640 640 472 640 c 0
474 427 m 0
 542 427 597 372 597 303 c 0
 597 235 542 180 474 180 c 0
 406 180 351 235 351 303 c 0
 351 372 406 427 474 427 c 0
EndSplineSet
Validated: 1
EndChar

StartChar: multiply
Encoding: 215 215 10
Width: 1000
VWidth: 0
Flags: W
HStem: -171 21G<324 342 660.5 675> 67 131<47.2774 264 399 602 734 928> 401 136<49.8747 261 399 599 736 947.825> 751 20G<329.5 341.5 658 671.5> 751 20G<329.5 341.5 658 671.5>
VStem: 264 133<-149.55 64 206.201 401 539 752.326> 602 131<-128 66 198 401 536 752.723>
LayerCount: 2
Fore
SplineSet
294 -158 m 1xf6
 271 -140 264 -110 264 -16 c 2
 264 67 l 1
 173 67 l 2
 72 67 53 72 36 105 c 0
 31 114 29 124 29 133 c 0
 29 151 37 169 53 182 c 0
 71 198 74 198 168 198 c 2
 265 198 l 1
 263 300 l 1
 261 401 l 1
 163 404 l 2
 71 407 64 408 50 422 c 0
 36 435 29 450 29 467 c 0
 29 474 31 481 33 489 c 0
 46 527 62 532 169 535 c 2
 263 537 l 1
 265 631 l 2
 268 738 273 754 311 767 c 0
 319 769 326 771 333 771 c 0
 350 771 365 764 378 750 c 0
 392 736 393 729 396 637 c 2
 399 539 l 1
 500 537 l 1
 602 535 l 1
 602 632 l 2
 602 726 602 729 618 747 c 0
 631 763 649 771 667 771 c 0
 676 771 686 769 695 764 c 0
 728 747 733 728 733 627 c 2
 733 536 l 1
 816 536 l 2
 862 536 909 533 922 529 c 0
 950 521 971 497 971 471 c 0
 971 445 950 412 932 408 c 0
 924 406 877 404 827 403 c 2
 736 401 l 1
 735 300 l 1
 733 198 l 1
 831 198 l 1
 928 198 l 1
 949 177 l 2
 964 162 971 147 971 132 c 0
 971 118 965 104 952 90 c 2
 934 70 l 1
 834 68 l 1
 734 66 l 1
 732 -34 l 1
 730 -134 l 1
 710 -152 l 2
 696 -165 682 -171 668 -171 c 0
 653 -171 638 -164 623 -149 c 2
 602 -128 l 1
 602 -31 l 1
 602 67 l 1
 500 65 l 1
 399 64 l 1
 397 -27 l 2
 396 -77 394 -124 392 -132 c 0
 388 -150 355 -171 329 -171 c 0
 319 -171 303 -165 294 -158 c 1xf6
601 300 m 1
 599 401 l 1
 499 401 l 1
 399 401 l 1
 397 308 l 2
 397 293 397 278 397 265 c 0
 397 233 397 210 398 206 c 0
 401 200 426 198 502 198 c 2
 602 198 l 1
 601 300 l 1
EndSplineSet
Validated: 1
EndChar

StartChar: divide
Encoding: 247 247 11
Width: 1000
VWidth: 0
Flags: W
HStem: -114 247<426.938 565.729> 240 131<72 785.255> 467 247<426.938 565.855>
VStem: 372 247<-57.2734 78.3613 523.98 659.801>
LayerCount: 2
Fore
SplineSet
453 -108 m 0
 408 -93 372 -38 372 10 c 0
 372 15 372 20 373 24 c 0
 382 79 414 115 466 129 c 0
 477 132 487 133 498 133 c 0
 565 133 619 77 619 10 c 0
 619 -2 618 -14 614 -26 c 0
 600 -81 550 -114 495 -114 c 0
 481 -114 467 -112 453 -108 c 0
53 256 m 1
 37 270 29 287 29 305 c 0
 29 315 31 324 36 333 c 0
 53 365 45 371 282 371 c 0
 341 371 415 370 509 370 c 2
 935 369 l 1
 953 348 l 2
 965 335 971 320 971 305 c 0
 971 296 969 286 964 275 c 0
 948 240 958 240 497 240 c 2
 72 240 l 1
 53 256 l 1
453 474 m 0
 408 488 372 543 372 592 c 0
 372 597 372 601 373 606 c 0
 382 660 414 696 466 710 c 0
 477 713 488 714 499 714 c 0
 565 714 619 659 619 591 c 0
 619 580 618 567 614 555 c 0
 600 502 550 467 495 467 c 0
 481 467 467 469 453 474 c 0
EndSplineSet
Validated: 1
EndChar

StartChar: eth
Encoding: 240 240 12
Width: 1000
HStem: -177 85<315.642 458 542 684.358> 27 143<579 657.432> 336 20G<478 522>
VStem: 421 158<170 331.648> 458 84<-92 25>
LayerCount: 2
Fore
SplineSet
500 356 m 0xf0
 544 356 579 321 579 277 c 2
 579 277 579 229 579 198 c 0
 579 182 579 170 579 170 c 1xf0
 670 186 752 229 816 291 c 1
 843 311 864 321 883 321 c 0
 897 321 910 316 923 306 c 0
 943 292 960 258 960 235 c 0
 960 232 960 229 959 226 c 0
 953 199 863 130 785 91 c 0
 714 55 628 33 542 27 c 1
 542 -92 l 1
 647 -92 l 2
 671 -92 690 -111 690 -134 c 0
 690 -158 671 -177 647 -177 c 2
 353 -177 l 2
 329 -177 310 -158 310 -134 c 0
 310 -111 329 -92 353 -92 c 2
 458 -92 l 1
 458 25 l 1xe8
 427 26 397 30 369 36 c 0
 206 71 54 162 41 232 c 0
 40 236 40 241 40 245 c 0
 40 272 56 298 85 312 c 0
 98 318 107 322 117 322 c 0
 133 321 149 312 179 289 c 0
 189 282 199 275 209 268 c 0
 269 219 342 184 421 170 c 1
 421 277 l 2
 421 321 456 356 500 356 c 0xf0
EndSplineSet
Validated: 1
EndChar

StartChar: odieresis
Encoding: 246 246 13
Width: 1000
VWidth: 0
Flags: W
HStem: -170 120<352.912 589.377> 61 116<402.338 541.787> 230 132<135 245.824 694.176 811> 426 113<403.805 540.395> 640 130<352.991 589.377>
VStem: 0 347<236.19 360.319> 596 344<236.19 360.319>
LayerCount: 2
Fore
SplineSet
470 770 m 0
 729 770 940 559 940 300 c 0
 940 41 729 -170 470 -170 c 0
 211 -170 0 41 0 300 c 0
 0 559 211 770 470 770 c 0
472 640 m 0
 305 640 166 520 135 362 c 1
 240 362 l 1
 267 464 360 539 470 539 c 0
 580 539 673 464 700 362 c 1
 811 362 l 1
 780 520 640 640 472 640 c 0
472 426 m 0
 403 426 347 370 347 302 c 0
 347 233 403 177 472 177 c 0
 541 177 596 233 596 302 c 0
 596 370 541 426 472 426 c 0
134 230 m 1
 165 71 305 -50 472 -50 c 0
 640 -50 780 71 811 230 c 1
 698 230 l 0
 668 132 577 61 470 61 c 0
 363 61 272 132 242 230 c 1
 134 230 l 1
EndSplineSet
Validated: 1
EndChar

StartChar: udieresis
Encoding: 252 252 14
Width: 1000
VWidth: 0
Flags: W
HStem: -170 120<352.912 589.377> 230 132<135 301.047 646.953 810> 407 20G<440 508> 640 130<352.991 589.298>
VStem: 0 318<252.04 336.089> 351 246<234.199 372.557> 630 310<252.04 336.089>
LayerCount: 2
Fore
SplineSet
470 770 m 0
 729 770 940 559 940 300 c 0
 940 41 729 -170 470 -170 c 0
 211 -170 0 41 0 300 c 0
 0 559 211 770 470 770 c 0
472 640 m 0
 305 640 166 520 135 362 c 1
 252 362 l 2
 289 362 318 332 318 296 c 0
 318 259 289 230 252 230 c 2
 252 230 200 230 165 230 c 0
 147 230 134 230 134 230 c 1
 165 71 305 -50 472 -50 c 0
 640 -50 780 71 811 230 c 1
 696 230 l 2
 659 230 630 259 630 296 c 0
 630 332 659 362 696 362 c 2
 810 362 l 1
 779 520 640 640 472 640 c 0
474 427 m 0
 542 427 597 372 597 303 c 0
 597 235 542 180 474 180 c 0
 406 180 351 235 351 303 c 0
 351 372 406 427 474 427 c 0
EndSplineSet
Validated: 1
EndChar

StartChar: equal
Encoding: 61 61 15
Width: 1000
HStem: 67 130<71 928> 75 122<71 350.062> 403 130<181.775 950.905>
LayerCount: 2
Fore
SplineSet
63 75 m 0x60
 41 87 29 109 29 132 c 0
 29 150 36 168 52 181 c 2
 71 197 l 1
 500 197 l 1
 928 197 l 1
 949 175 l 2
 964 160 971 146 971 131 c 0
 971 117 965 103 952 89 c 2
 934 68 l 1
 507 67 l 2
 433 67 372 67 321 67 c 0xa0
 116 67 75 69 63 75 c 0x60
53 418 m 1
 43 427 33 441 30 450 c 0
 29 454 29 457 29 461 c 0
 29 483 40 508 57 520 c 0
 73 530 98 531 477 533 c 0
 536 533 593 533 646 533 c 0
 789 533 896 532 907 531 c 0
 943 526 971 500 971 472 c 0
 971 448 956 418 940 409 c 0
 932 405 781 403 500 403 c 2
 71 403 l 1
 53 418 l 1
EndSplineSet
Validated: 1
EndChar

StartChar: plus
Encoding: 43 43 16
Width: 1000
HStem: -171 121<311 695.937> 443 20G<491.5 510>
LayerCount: 2
Fore
SplineSet
172 -168 m 0
 155 -161 134 -131 134 -113 c 0
 134 -103 165 -43 211 38 c 0
 402 370 443 439 455 451 c 0
 464 459 482 463 501 463 c 0
 519 463 537 459 546 452 c 0
 553 446 628 321 712 174 c 0
 830 -30 866 -94 866 -124 c 0
 866 -137 859 -144 850 -153 c 0
 842 -162 831 -169 827 -169 c 0
 781 -170 660 -171 534 -171 c 0
 360 -171 177 -170 172 -168 c 0
696 -45 m 0
 684 -17 506 285 501 285 c 0
 494 284 316 -22 311 -39 c 0
 311 -40 311 -40 311 -41 c 0
 311 -49 333 -50 503 -50 c 0
 609 -50 696 -48 696 -45 c 0
EndSplineSet
Validated: 1
EndChar

StartChar: hyphen
Encoding: 45 45 17
Width: 1000
HStem: 355 119<309.036 692.844>
VStem: 135 174<342.5 431.5>
LayerCount: 2
Fore
SplineSet
601 182 m 0
 652 271 693 346 693 350 c 0
 691 353 604 355 499 355 c 0
 358 355 309 353 309 348 c 0
 309 337 497 15 502 15 c 0
 504 17 548 92 601 182 c 0
466 -153 m 0
 448 -144 421 -101 290 127 c 0
 172 332 135 394 135 425 c 0
 135 438 142 445 152 455 c 2
 171 474 l 1
 500 474 l 1
 829 474 l 1
 847 455 l 2
 857 445 865 438 865 424 c 0
 865 393 829 331 713 130 c 0
 629 -15 555 -140 548 -146 c 0
 538 -156 521 -162 503 -162 c 0
 490 -162 477 -159 466 -153 c 0
EndSplineSet
Validated: 1
EndChar

StartChar: zero
Encoding: 48 48 18
Width: 1000
HStem: -170 21G<370.5 629.5> 750 20G<370.5 629.5> 750 20G<370.5 629.5>
VStem: 30 940<160.449 439.551>
LayerCount: 2
Fore
SplineSet
500 770 m 0xd0
 759 770 970 559 970 300 c 0
 970 41 759 -170 500 -170 c 0
 241 -170 30 41 30 300 c 0
 30 559 241 770 500 770 c 0xd0
EndSplineSet
Validated: 1
EndChar

StartChar: M
Encoding: 77 77 19
Width: 1000
HStem: -170 21G<370.5 629.5> 750 20G<370.5 629.5> 750 20G<370.5 629.5>
VStem: 30 940<160.449 439.551>
LayerCount: 2
Fore
SplineSet
500 770 m 0xd0
 759 770 970 559 970 300 c 0
 970 41 759 -170 500 -170 c 0
 241 -170 30 41 30 300 c 0
 30 559 241 770 500 770 c 0xd0
EndSplineSet
Validated: 1
EndChar

StartChar: N
Encoding: 78 78 20
Width: 1000
HStem: -168 298<417.968 582.032> 470 298<417.968 582.032>
VStem: 32 298<217.968 382.032> 670 298<217.968 382.032>
LayerCount: 2
Fore
SplineSet
500 768 m 0
 759 768 968 559 968 300 c 0
 968 41 759 -168 500 -168 c 0
 241 -168 32 41 32 300 c 0
 32 559 241 768 500 768 c 0
500 470 m 0
 406 470 330 394 330 300 c 0
 330 206 406 130 500 130 c 0
 594 130 670 206 670 300 c 0
 670 394 594 470 500 470 c 0
EndSplineSet
Validated: 1
EndChar

StartChar: A
Encoding: 65 65 21
Width: 1000
HStem: -170 21G<340.5 599.5> 750 20G<340.5 599.5> 750 20G<340.5 599.5>
VStem: 0 130<184.983 417.377> 392 153<-32 637> 820 120<183.272 419.017>
LayerCount: 2
Fore
SplineSet
0 300 m 0xdc
 0 559 211 770 470 770 c 0
 729 770 940 559 940 300 c 0
 940 41 729 -170 470 -170 c 0
 211 -170 0 41 0 300 c 0xdc
130 302 m 0
 130 141 242 6 392 -32 c 1
 392 -32 392 265 392 464 c 0
 392 563 392 637 392 637 c 1
 242 600 130 464 130 302 c 0
545 -35 m 1
 702 -3 820 136 820 302 c 0
 820 469 702 608 545 640 c 1
 545 -35 l 1
EndSplineSet
Validated: 1
EndChar

StartChar: E
Encoding: 69 69 22
Width: 1000
HStem: -170 120<353.223 589.099> 640 130<353.223 589.099>
VStem: 0 128<179.662 409.686> 818 122<179.662 409.686>
LayerCount: 2
Fore
SplineSet
470 770 m 0
 729 770 940 559 940 300 c 0
 940 41 729 -170 470 -170 c 0
 211 -170 0 41 0 300 c 0
 -0 559 211 770 470 770 c 0
472 640 m 0
 282 640 128 485 128 295 c 0
 128 105 282 -50 472 -50 c 0
 663 -50 818 105 818 295 c 0
 818 485 663 640 472 640 c 0
EndSplineSet
Validated: 1
EndChar

StartChar: I
Encoding: 73 73 23
Width: 1000
HStem: -170 120<353.272 589.017> 225 153<138 807> 640 130<354.983 587.377>
VStem: 0 940<228.556 371.444>
LayerCount: 2
Fore
SplineSet
470 770 m 0
 729 770 940 559 940 300 c 0
 940 41 729 -170 470 -170 c 0
 211 -170 0 41 0 300 c 0
 0 559 211 770 470 770 c 0
472 640 m 0
 311 640 176 528 138 378 c 1
 138 378 435 378 634 378 c 0
 733 378 807 378 807 378 c 1
 770 528 634 640 472 640 c 0
135 225 m 1
 167 68 306 -50 472 -50 c 0
 639 -50 778 68 810 225 c 1
 135 225 l 1
EndSplineSet
Validated: 1
EndChar

StartChar: O
Encoding: 79 79 24
Width: 1000
HStem: -170 120<353.223 589.099> 61 116<403.348 541.315> 426 113<403.348 541.315> 640 130<353.223 589.099>
VStem: 0 128<179.662 409.686> 231 116<233.348 371.095> 596 113<233.348 371.095> 818 122<179.662 409.686>
LayerCount: 2
Fore
SplineSet
470 539 m 0
 602 539 709 432 709 300 c 0
 709 168 602 61 470 61 c 0
 338 61 231 168 231 300 c 0
 231 432 338 539 470 539 c 0
472 426 m 0
 403 426 347 370 347 302 c 0
 347 233 403 177 472 177 c 0
 541 177 596 233 596 302 c 0
 596 370 541 426 472 426 c 0
470 770 m 0
 729 770 940 559 940 300 c 0
 940 41 729 -170 470 -170 c 0
 211 -170 0 41 0 300 c 0
 -0 559 211 770 470 770 c 0
472 640 m 0
 282 640 128 485 128 295 c 0
 128 105 282 -50 472 -50 c 0
 663 -50 818 105 818 295 c 0
 818 485 663 640 472 640 c 0
EndSplineSet
Validated: 1
EndChar

StartChar: U
Encoding: 85 85 25
Width: 1000
HStem: -170 120<353.223 589.099> 180 247<405.199 542.801> 640 130<353.223 589.099>
VStem: 0 128<179.662 409.686> 351 246<234.199 372.557> 818 122<179.662 409.686>
LayerCount: 2
Fore
SplineSet
470 770 m 0
 729 770 940 559 940 300 c 0
 940 41 729 -170 470 -170 c 0
 211 -170 0 41 0 300 c 0
 0 559 211 770 470 770 c 0
472 640 m 0
 282 640 128 485 128 295 c 0
 128 105 282 -50 472 -50 c 0
 663 -50 818 105 818 295 c 0
 818 485 663 640 472 640 c 0
474 427 m 0
 542 427 597 372 597 303 c 0
 597 235 542 180 474 180 c 0
 406 180 351 235 351 303 c 0
 351 372 406 427 474 427 c 0
EndSplineSet
Validated: 1
EndChar

StartChar: F
Encoding: 70 70 26
Width: 1000
HStem: 7 138<361.214 636.98> 296 138<361.214 637.424> 573 20G<109.5 125 873 889>
LayerCount: 2
Fore
SplineSet
117 593 m 0
 133 593 149 584 178 561 c 0
 188 554 199 547 209 540 c 0
 288 474 389 434 500 434 c 0
 623 434 734 483 816 563 c 1
 843 583 864 593 882 593 c 0
 896 593 909 588 923 578 c 0
 943 564 960 530 960 507 c 0
 960 504 960 501 959 498 c 0
 952 471 863 402 785 363 c 0
 699 320 589 296 487 296 c 0
 446 296 406 300 369 308 c 0
 206 343 54 434 41 503 c 0
 40 507 40 512 40 516 c 0
 40 544 56 570 85 584 c 0
 96 589 105 593 114 593 c 0
 115 593 116 593 117 593 c 0
117 304 m 1
 133 304 149 294 179 272 c 0
 189 264 199 257 209 250 c 0
 288 185 389 145 500 145 c 0
 623 145 734 194 816 274 c 1
 843 294 864 303 883 303 c 0
 897 303 910 299 923 289 c 0
 943 274 960 241 960 218 c 0
 960 215 960 212 959 209 c 0
 953 182 863 112 785 73 c 0
 698 30 588 7 486 7 c 0
 445 7 405 10 369 18 c 0
 206 53 54 144 41 214 c 0
 40 218 40 222 40 227 c 0
 40 255 57 281 85 295 c 0
 98 301 107 304 117 304 c 1
EndSplineSet
Validated: 1
EndChar

StartChar: V
Encoding: 86 86 27
Width: 1000
HStem: -177 85<315.642 458 542 684.358> 9 136<361.368 458 542 637.634> 296 138<361.214 637.424> 573 20G<109.5 125 873 889>
VStem: 458 84<-92 8.59679>
LayerCount: 2
Fore
SplineSet
117 593 m 0
 133 593 149 584 178 561 c 0
 188 554 199 547 209 540 c 0
 288 474 389 434 500 434 c 0
 623 434 734 483 816 563 c 1
 843 583 864 593 882 593 c 0
 896 593 909 588 923 578 c 0
 943 564 960 530 960 507 c 0
 960 504 960 501 959 498 c 0
 952 471 863 402 785 363 c 0
 699 320 589 296 487 296 c 0
 446 296 406 300 369 308 c 0
 206 343 54 434 41 503 c 0
 40 507 40 512 40 516 c 0
 40 544 56 570 85 584 c 0
 96 589 105 593 114 593 c 0
 115 593 116 593 117 593 c 0
117 304 m 0
 133 304 149 294 179 272 c 0
 189 264 199 257 209 250 c 0
 288 185 389 145 500 145 c 0
 623 145 734 194 816 274 c 1
 843 294 864 303 883 303 c 0
 897 303 910 299 923 289 c 0
 943 274 960 241 960 218 c 0
 960 215 960 212 959 209 c 0
 953 182 863 112 785 73 c 0
 714 38 628 16 542 9 c 1
 542 -92 l 1
 647 -92 l 2
 671 -92 690 -111 690 -134 c 0
 690 -158 671 -177 647 -177 c 2
 353 -177 l 2
 329 -177 310 -158 310 -134 c 0
 310 -111 329 -92 353 -92 c 2
 458 -92 l 1
 458 7 l 1
 427 9 397 12 369 18 c 0
 206 53 54 144 41 214 c 0
 40 218 40 222 40 227 c 0
 40 255 57 281 85 295 c 0
 98 301 107 304 117 304 c 0
EndSplineSet
Validated: 1
EndChar

StartChar: G
Encoding: 71 71 28
Width: 1000
HStem: -114 176<409.902 568.504> 163 58<514 542.801> 274 109<517.285 606.913> 549 165<489.401 679.639>
VStem: 52 247<187.873 367.602> 425 89<219.718 269.139> 633 130<126.271 246.447>
LayerCount: 2
Fore
SplineSet
337 -101 m 0
 169 -51 63 79 53 250 c 0
 53 259 52 268 52 276 c 0
 52 338 65 388 97 448 c 0
 180 608 328 704 506 713 c 0
 516 713 525 714 534 714 c 0
 659 714 771 671 866 585 c 0
 894 561 948 490 948 480 c 0
 948 475 936 474 917 477 c 0
 890 480 865 489 795 520 c 0
 747 541 700 549 626 549 c 0
 551 549 538 547 509 537 c 0
 404 498 329 420 305 324 c 0
 301 309 299 293 299 277 c 0
 299 195 347 113 420 77 c 0
 441 67 466 62 491 62 c 0
 519 62 546 68 565 81 c 0
 603 106 621 129 629 161 c 0
 632 171 633 180 633 189 c 0
 633 230 608 264 569 273 c 0
 565 274 561 274 557 274 c 0
 535 274 514 259 514 242 c 0
 514 239 514 237 515 235 c 0
 518 228 524 221 528 221 c 0
 540 221 548 212 548 201 c 0
 548 197 547 192 544 187 c 0
 540 179 533 170 529 168 c 0
 524 164 517 163 509 163 c 0
 482 163 445 183 434 208 c 0
 428 224 425 239 425 254 c 0
 425 319 478 376 556 382 c 0
 564 383 572 383 579 383 c 0
 623 383 654 370 689 338 c 0
 740 293 762 245 763 179 c 0
 763 177 763 175 763 172 c 0
 763 71 717 -8 626 -64 c 0
 564 -102 530 -111 454 -114 c 0
 446 -114 439 -114 432 -114 c 0
 392 -114 371 -111 337 -101 c 0
EndSplineSet
Validated: 1
EndChar

StartChar: H
Encoding: 72 72 29
Width: 600
Flags: W
HStem: 80 109<216.52 345.652> 411 109<221.986 347.68>
VStem: 379 111<224.265 376.645>
LayerCount: 2
Fore
SplineSet
297 520 m 0
 335 520 369 510 397 492 c 0
 463 449 490 373 490 302 c 0
 490 230 463 154 398 110 c 0
 369 91 334 80 294 80 c 0
 247 80 193 95 138 127 c 0
 121 137 110 155 110 175 c 0
 110 185 113 195 118 203 c 0
 127 220 145 231 166 231 c 0
 176 231 185 228 193 223 c 0
 237 198 269 189 292 189 c 0
 312 189 325 195 336 202 c 0
 361 219 379 259 379 301 c 0
 379 344 361 383 337 399 c 0
 326 406 313 411 295 411 c 0
 272 411 239 402 194 374 c 0
 186 369 176 366 166 366 c 0
 145 366 128 377 118 393 c 0
 113 402 110 411 110 422 c 0
 110 442 121 460 137 469 c 0
 193 503 248 520 297 520 c 0
EndSplineSet
Validated: 1
EndChar

StartChar: R
Encoding: 82 82 30
Width: 1000
HStem: 578 117<422.55 575.309>
VStem: 230 139<396.416 531.518> 630 140<395.157 529.5>
LayerCount: 2
Fore
SplineSet
76 -96 m 0
 67 -93 63 -87 62 -77 c 0
 61 -68 64 -59 70 -50 c 0
 72 -47 80 -38 86 -31 c 0
 112 -6 142 17 277 113 c 0
 311 137 353 167 370 180 c 2
 403 203 l 1
 398 207 l 2
 353 245 316 282 290 315 c 0
 270 340 251 373 242 398 c 0
 234 420 230 443 230 465 c 0
 230 509 246 551 277 590 c 0
 286 601 308 623 319 632 c 0
 333 643 350 654 367 662 c 0
 398 677 413 683 466 692 c 0
 475 694 487 695 498 695 c 0
 507 695 517 694 525 693 c 0
 576 684 602 677 633 662 c 0
 651 653 659 648 675 636 c 0
 689 626 713 603 723 590 c 0
 754 551 770 509 770 466 c 0
 770 463 770 461 770 458 c 0
 768 404 743 352 692 294 c 0
 673 272 634 235 606 210 c 2
 597 203 l 1
 600 202 l 2
 601 201 613 192 626 182 c 0
 649 166 678 145 775 76 c 0
 878 2 916 -28 931 -51 c 0
 936 -59 939 -67 939 -75 c 0
 939 -83 935 -91 928 -94 c 0
 923 -96 922 -97 912 -97 c 0
 899 -96 886 -93 865 -86 c 0
 802 -63 684 3 572 78 c 0
 548 94 514 118 503 125 c 2
 500 128 l 1
 479 113 l 2
 362 29 209 -59 135 -86 c 0
 115 -93 96 -97 84 -97 c 0
 81 -97 78 -97 76 -96 c 0
523 299 m 0
 540 314 567 341 579 354 c 0
 614 396 630 430 630 466 c 0
 630 468 630 470 630 472 c 0
 630 488 627 497 622 509 c 0
 608 538 588 554 547 569 c 0
 534 575 520 578 505 578 c 0
 485 578 464 573 443 565 c 0
 408 552 391 538 379 513 c 0
 372 501 369 485 369 469 c 0
 369 461 370 452 372 443 c 0
 381 398 418 349 487 290 c 2
 500 279 l 1
 505 283 l 2
 508 285 516 293 523 299 c 0
EndSplineSet
Validated: 1
EndChar

StartChar: S
Encoding: 83 83 31
Width: 1000
HStem: 28 138<361.214 636.98> 326 246<432.883 570.801>
VStem: 378 247<380.199 517.801>
LayerCount: 2
Fore
SplineSet
502 572 m 0
 570 572 625 517 625 449 c 0
 625 381 570 326 502 326 c 0
 434 326 378 381 378 449 c 0
 378 517 434 572 502 572 c 0
117 325 m 1
 133 325 149 315 179 293 c 0
 189 286 199 278 209 272 c 0
 288 206 389 166 500 166 c 0
 623 166 734 215 816 295 c 1
 843 315 864 324 883 324 c 0
 897 324 910 320 923 310 c 0
 943 296 960 262 960 239 c 0
 960 236 960 233 959 230 c 0
 953 203 863 133 785 94 c 0
 698 51 588 28 486 28 c 0
 445 28 405 31 369 39 c 0
 206 75 54 166 41 235 c 0
 40 239 40 244 40 248 c 0
 40 276 56 302 85 316 c 0
 98 322 107 325 117 325 c 1
EndSplineSet
Validated: 1
EndChar

StartChar: W
Encoding: 87 87 32
Width: 600
Flags: W
HStem: 177 246<231.199 368.801>
VStem: 177 246<231.199 368.801>
LayerCount: 2
Fore
SplineSet
300 423 m 0
 368 423 423 368 423 300 c 0
 423 232 368 177 300 177 c 0
 232 177 177 232 177 300 c 0
 177 368 232 423 300 423 c 0
EndSplineSet
Validated: 1
EndChar

StartChar: Y
Encoding: 89 89 33
Width: 600
Flags: W
HStem: 245 110<66.104 533.896>
LayerCount: 2
Fore
SplineSet
111 355 m 2
 489 355 l 1
 520 355 545 331 545 300 c 0
 545 269 520 245 489 245 c 2
 111 245 l 1
 80 245 55 269 55 300 c 0
 55 331 80 355 111 355 c 2
EndSplineSet
Validated: 1
EndChar

StartChar: K
Encoding: 75 75 34
Width: 600
Flags: W
HStem: -164 21G<132.5 165.5> 744 20G<132.5 165.5> 744 20G<132.5 165.5>
VStem: 90 118<-150.255 303.998 447 750.255> 405 105<216.692 368.756>
LayerCount: 2
Fore
SplineSet
149 764 m 0xd8
 182 764 208 737 208 704 c 2
 208 447 l 1
 226 463 247 476 270 484 c 0
 281 488 293 491 306 493 c 0
 315 495 325 495 335 495 c 0
 337 495 339 495 341 495 c 0
 360 495 378 491 395 484 c 0
 396 484 397 484 398 483 c 0
 405 481 412 477 418 474 c 0
 420 473 422 471 424 470 c 0
 427 468 430 466 434 463 c 0
 439 460 443 456 448 452 c 0
 450 450 451 448 453 447 c 0
 464 435 474 422 482 408 c 0
 483 407 483 406 484 405 c 0
 490 394 495 382 499 370 c 0
 501 365 502 359 503 354 c 0
 504 350 505 345 506 341 c 0
 508 333 509 325 509 316 c 0
 510 313 510 308 510 304 c 0
 510 292 510 279 508 267 c 0
 508 265 508 263 507 261 c 0
 506 254 505 248 504 241 c 0
 499 221 492 201 483 182 c 0
 470 157 454 132 438 109 c 0
 432 102 427 95 422 87 c 0
 412 75 403 62 393 51 c 0
 392 50 391 49 390 48 c 0
 387 45 384 42 381 39 c 0
 376 34 370 31 364 30 c 0
 363 29 l 0
 354 27 345 28 337 30 c 0
 322 35 309 45 302 58 c 0
 301 59 301 60 301 61 c 0
 296 70 295 81 298 91 c 0
 298 96 301 99 303 103 c 0
 305 106 307 109 309 112 c 0
 311 114 313 117 314 120 c 0
 326 136 339 152 351 168 c 0
 357 176 363 184 368 192 c 0
 374 201 380 210 385 220 c 0
 395 239 402 260 404 281 c 0
 405 287 405 293 405 299 c 0
 405 312 403 326 399 338 c 0
 398 343 395 347 393 352 c 0
 390 362 383 370 375 376 c 0
 362 386 346 391 329 391 c 0
 322 390 315 389 308 387 c 0
 301 384 295 381 290 377 c 0
 275 367 264 354 254 340 c 0
 245 328 238 316 230 304 c 0
 226 298 223 291 220 285 c 0
 216 279 212 272 208 266 c 1
 208 -104 l 2
 208 -137 182 -164 149 -164 c 0
 116 -164 90 -137 90 -104 c 2
 90 704 l 2
 90 737 116 764 149 764 c 0xd8
EndSplineSet
Validated: 1
EndChar

StartChar: P
Encoding: 80 80 35
Width: 600
Flags: W
HStem: -164 21G<85 117.5> 101 118<161 544.338> 381 118<161 544.338> 744 20G<85 117.5> 744 20G<85 117.5>
VStem: 42 119<-150.255 101 219 381 499 750.255>
LayerCount: 2
Fore
SplineSet
101 764 m 0xf4
 134 764 161 737 161 704 c 2
 161 499 l 1
 499 499 l 2
 531 499 558 473 558 440 c 0
 558 407 531 381 499 381 c 2
 161 381 l 1
 161 219 l 1
 499 219 l 2
 531 219 558 193 558 160 c 0
 558 127 531 101 499 101 c 2
 161 101 l 1
 161 -104 l 2
 161 -137 134 -164 101 -164 c 0
 69 -164 42 -137 42 -104 c 2
 42 704 l 2
 42 737 69 764 101 764 c 0xf4
EndSplineSet
Validated: 1
EndChar

StartChar: T
Encoding: 84 84 36
Width: 600
Flags: W
HStem: -164 21G<85 117.5> 227 118<161 544.338> 426 200<278.935 402.642> 744 20G<85 117.5> 744 20G<85 117.5>
VStem: 42 119<-150.255 227 345 750.255> 241 200<464.358 587.642>
LayerCount: 2
Fore
SplineSet
101 764 m 0xf6
 134 764 161 737 161 704 c 2
 161 345 l 1
 499 345 l 2
 531 345 558 319 558 286 c 0
 558 253 531 227 499 227 c 2
 161 227 l 1
 161 -104 l 2
 161 -137 134 -164 101 -164 c 0
 69 -164 42 -137 42 -104 c 2
 42 704 l 2
 42 737 69 764 101 764 c 0xf6
341 626 m 0
 396 626 441 581 441 526 c 0
 441 471 396 426 341 426 c 0
 285 426 241 471 241 526 c 0
 241 581 285 626 341 626 c 0
EndSplineSet
Validated: 1
EndChar

StartChar: L
Encoding: 76 76 37
Width: 600
Flags: W
HStem: -164 21G<85 117.5> 426 200<278.935 402.642> 744 20G<85 117.5> 744 20G<85 117.5>
VStem: 42 119<-150.255 750.255> 241 200<464.358 587.642>
LayerCount: 2
Fore
SplineSet
101 764 m 0xec
 134 764 161 737 161 704 c 2
 161 -104 l 2
 161 -137 134 -164 101 -164 c 0
 69 -164 42 -137 42 -104 c 2
 42 704 l 2
 42 737 69 764 101 764 c 0xec
341 626 m 0
 396 626 441 581 441 526 c 0
 441 471 396 426 341 426 c 0
 285 426 241 471 241 526 c 0
 241 581 285 626 341 626 c 0
EndSplineSet
Validated: 1
EndChar

StartChar: J
Encoding: 74 74 38
Width: 1000
HStem: -177 85<315.642 458 542 684.358> 22 147<368.004 458 542 628.074> 485 91<444.906 549.518>
VStem: 302 84<319.161 407.185> 458 84<-92 21.6468> 581 117<362.736 453.833>
LayerCount: 2
Fore
SplineSet
493 576 m 0
 494 576 495 576 495 576 c 0
 579 576 663 524 689 428 c 0
 693 410 698 386 698 364 c 0
 698 337 690 312 663 306 c 1
 662 306 660 306 659 306 c 0
 607 306 602 381 581 422 c 1
 566 460 531 485 497 485 c 0
 483 485 469 481 456 472 c 0
 414 444 398 388 386 339 c 1
 379 320 364 311 349 311 c 0
 326 311 302 330 302 359 c 0
 302 360 l 0
 302 363 302 366 302 369 c 0
 302 461 360 545 436 566 c 0
 455 572 474 575 493 576 c 0
112 317 m 0
 113 317 115 317 116 317 c 0
 126 317 135 314 144 307 c 0
 199 271 251 230 314 209 c 0
 365 191 416 169 471 169 c 0
 474 169 478 169 481 169 c 1
 488 169 495 169 502 169 c 0
 547 169 592 175 634 193 c 1
 702 214 766 247 822 291 c 0
 839 305 862 316 883 316 c 0
 897 316 910 312 921 302 c 0
 943 286 962 260 962 233 c 0
 962 230 961 228 961 225 c 1
 936 181 891 154 851 125 c 0
 760 64 652 30 542 22 c 1
 542 -92 l 1
 647 -92 l 2
 671 -92 690 -111 690 -134 c 0
 690 -158 671 -177 647 -177 c 2
 353 -177 l 2
 329 -177 310 -158 310 -134 c 0
 310 -111 329 -92 353 -92 c 2
 458 -92 l 1
 458 20 l 1
 440 21 422 23 405 25 c 0
 392 26 380 28 368 31 c 0
 260 53 155 99 72 173 c 0
 52 190 39 215 39 241 c 0
 39 253 42 266 49 277 c 0
 62 296 87 315 112 317 c 0
EndSplineSet
Validated: 1
EndChar

StartChar: Z
Encoding: 90 90 39
Width: 1000
HStem: -177 85<315.642 458 542 684.358> 29 137<361.368 458 542 637.634> 326 246<432.883 570.801>
VStem: 378 247<380.199 517.801> 458 84<-92 29>
LayerCount: 2
Fore
SplineSet
502 572 m 0xf0
 570 572 625 517 625 449 c 0
 625 381 570 326 502 326 c 0
 434 326 378 381 378 449 c 0
 378 517 434 572 502 572 c 0xf0
117 325 m 0
 133 325 149 315 179 293 c 0
 189 286 199 278 209 272 c 0
 288 206 389 166 500 166 c 0
 623 166 734 215 816 295 c 1
 843 315 864 324 883 324 c 0
 897 324 910 320 923 310 c 0
 943 296 960 262 960 239 c 0
 960 236 960 233 959 230 c 0
 953 203 863 133 785 94 c 0
 714 59 628 37 542 30 c 1
 542 -92 l 1
 647 -92 l 2
 671 -92 690 -111 690 -134 c 0
 690 -158 671 -177 647 -177 c 2
 353 -177 l 2
 329 -177 310 -158 310 -134 c 0
 310 -111 329 -92 353 -92 c 2
 458 -92 l 1
 458 29 l 1xe8
 427 30 397 33 369 39 c 0
 206 75 54 166 41 235 c 0
 40 239 40 244 40 248 c 0
 40 276 56 302 85 316 c 0
 98 322 107 325 117 325 c 0
EndSplineSet
Validated: 1
EndChar

StartChar: asterisk
Encoding: 42 42 40
Width: 1000
VWidth: 0
Flags: W
HStem: 67 131<47.2774 264 399 602 734 928> 401 136<49.8747 261 399 599 736 947.825>
VStem: 264 133<-149.55 64 206.201 401 539 752.326> 602 131<-128 66 198 401 536 752.723>
LayerCount: 2
Fore
SplineSet
294 -158 m 1
 271 -140 264 -110 264 -16 c 2
 264 67 l 1
 173 67 l 2
 72 67 53 72 36 105 c 0
 31 114 29 124 29 133 c 0
 29 151 37 169 53 182 c 0
 71 198 74 198 168 198 c 2
 265 198 l 1
 263 300 l 1
 261 401 l 1
 163 404 l 2
 71 407 64 408 50 422 c 0
 36 435 29 450 29 467 c 0
 29 474 31 481 33 489 c 0
 46 527 62 532 169 535 c 2
 263 537 l 1
 265 631 l 2
 268 738 273 754 311 767 c 0
 319 769 326 771 333 771 c 0
 350 771 365 764 378 750 c 0
 392 736 393 729 396 637 c 2
 399 539 l 1
 500 537 l 1
 602 535 l 1
 602 632 l 2
 602 726 602 729 618 747 c 0
 631 763 649 771 667 771 c 0
 676 771 686 769 695 764 c 0
 728 747 733 728 733 627 c 2
 733 536 l 1
 816 536 l 2
 862 536 909 533 922 529 c 0
 950 521 971 497 971 471 c 0
 971 445 950 412 932 408 c 0
 924 406 877 404 827 403 c 2
 736 401 l 1
 735 300 l 1
 733 198 l 1
 831 198 l 1
 928 198 l 1
 949 177 l 2
 964 162 971 147 971 132 c 0
 971 118 965 104 952 90 c 2
 934 70 l 1
 834 68 l 1
 734 66 l 1
 732 -34 l 1
 730 -134 l 1
 710 -152 l 2
 696 -165 682 -171 668 -171 c 0
 653 -171 638 -164 623 -149 c 2
 602 -128 l 1
 602 -31 l 1
 602 67 l 1
 500 65 l 1
 399 64 l 1
 397 -27 l 2
 396 -77 394 -124 392 -132 c 0
 388 -150 355 -171 329 -171 c 0
 319 -171 303 -165 294 -158 c 1
601 300 m 1
 599 401 l 1
 499 401 l 1
 399 401 l 1
 397 308 l 2
 397 293 397 278 397 265 c 0
 397 233 397 210 398 206 c 0
 401 200 426 198 502 198 c 2
 602 198 l 1
 601 300 l 1
EndSplineSet
Validated: 1
EndChar

StartChar: slash
Encoding: 47 47 41
Width: 1000
VWidth: 0
Flags: W
HStem: -114 247<426.938 565.729> 240 129<72 785.255> 467 247<426.938 565.855>
VStem: 372 247<-57.2734 78.3613 523.98 659.801>
LayerCount: 2
Fore
SplineSet
453 -108 m 0
 408 -93 372 -38 372 10 c 0
 372 15 372 20 373 24 c 0
 382 79 414 115 466 129 c 0
 477 132 487 133 498 133 c 0
 565 133 619 77 619 10 c 0
 619 -2 618 -14 614 -26 c 0
 600 -81 550 -114 495 -114 c 0
 481 -114 467 -112 453 -108 c 0
53 256 m 1
 37 270 29 287 29 305 c 0
 29 315 31 324 36 333 c 0
 53 365 45 371 282 371 c 0
 341 371 415 370 509 370 c 2
 935 369 l 1
 953 348 l 2
 965 335 971 320 971 305 c 0
 971 296 969 286 964 275 c 0
 948 240 958 240 497 240 c 2
 72 240 l 1
 53 256 l 1
453 474 m 0
 408 488 372 543 372 592 c 0
 372 597 372 601 373 606 c 0
 382 660 414 696 466 710 c 0
 477 713 488 714 499 714 c 0
 565 714 619 659 619 591 c 0
 619 580 618 567 614 555 c 0
 600 502 550 467 495 467 c 0
 481 467 467 469 453 474 c 0
EndSplineSet
Validated: 1
EndChar

StartChar: a
Encoding: 97 97 42
Width: 1000
Flags: W
HStem: -170 21G<340.5 599.5> 750 20G<340.5 599.5> 750 20G<340.5 599.5>
VStem: 0 130<184.983 417.377> 392 153<-32 637> 820 120<183.272 419.017>
LayerCount: 2
Fore
SplineSet
0 300 m 0xdc
 0 559 211 770 470 770 c 0
 729 770 940 559 940 300 c 0
 940 41 729 -170 470 -170 c 0
 211 -170 0 41 0 300 c 0xdc
130 302 m 0
 130 141 242 6 392 -32 c 1
 392 -32 392 265 392 464 c 0
 392 563 392 637 392 637 c 1
 242 600 130 464 130 302 c 0
545 -35 m 1
 702 -3 820 136 820 302 c 0
 820 469 702 608 545 640 c 1
 545 -35 l 1
EndSplineSet
Validated: 1
EndChar

StartChar: e
Encoding: 101 101 43
Width: 1000
Flags: W
HStem: -170 120<353.223 589.099> 640 130<353.223 589.099>
VStem: 0 128<179.662 409.686> 818 122<179.662 409.686>
LayerCount: 2
Fore
SplineSet
470 770 m 0
 729 770 940 559 940 300 c 0
 940 41 729 -170 470 -170 c 0
 211 -170 0 41 0 300 c 0
 -0 559 211 770 470 770 c 0
472 640 m 0
 282 640 128 485 128 295 c 0
 128 105 282 -50 472 -50 c 0
 663 -50 818 105 818 295 c 0
 818 485 663 640 472 640 c 0
EndSplineSet
Validated: 1
EndChar

StartChar: f
Encoding: 102 102 44
Width: 1000
Flags: W
HStem: 7 138<361.214 636.98> 296 138<361.214 637.424> 573 20G<109.5 125 873 889>
LayerCount: 2
Fore
SplineSet
117 593 m 0
 133 593 149 584 178 561 c 0
 188 554 199 547 209 540 c 0
 288 474 389 434 500 434 c 0
 623 434 734 483 816 563 c 1
 843 583 864 593 882 593 c 0
 896 593 909 588 923 578 c 0
 943 564 960 530 960 507 c 0
 960 504 960 501 959 498 c 0
 952 471 863 402 785 363 c 0
 699 320 589 296 487 296 c 0
 446 296 406 300 369 308 c 0
 206 343 54 434 41 503 c 0
 40 507 40 512 40 516 c 0
 40 544 56 570 85 584 c 0
 96 589 105 593 114 593 c 0
 115 593 116 593 117 593 c 0
117 304 m 1
 133 304 149 294 179 272 c 0
 189 264 199 257 209 250 c 0
 288 185 389 145 500 145 c 0
 623 145 734 194 816 274 c 1
 843 294 864 303 883 303 c 0
 897 303 910 299 923 289 c 0
 943 274 960 241 960 218 c 0
 960 215 960 212 959 209 c 0
 953 182 863 112 785 73 c 0
 698 30 588 7 486 7 c 0
 445 7 405 10 369 18 c 0
 206 53 54 144 41 214 c 0
 40 218 40 222 40 227 c 0
 40 255 57 281 85 295 c 0
 98 301 107 304 117 304 c 1
EndSplineSet
Validated: 1
EndChar

StartChar: g
Encoding: 103 103 45
Width: 1000
Flags: W
HStem: -114 176<409.902 568.504> 163 58<514 542.801> 274 109<517.285 606.913> 549 165<489.401 679.639>
VStem: 52 247<187.873 367.602> 425 89<219.718 269.139> 633 130<126.271 246.447>
LayerCount: 2
Fore
SplineSet
337 -101 m 0
 169 -51 63 79 53 250 c 0
 53 259 52 268 52 276 c 0
 52 338 65 388 97 448 c 0
 180 608 328 704 506 713 c 0
 516 713 525 714 534 714 c 0
 659 714 771 671 866 585 c 0
 894 561 948 490 948 480 c 0
 948 475 936 474 917 477 c 0
 890 480 865 489 795 520 c 0
 747 541 700 549 626 549 c 0
 551 549 538 547 509 537 c 0
 404 498 329 420 305 324 c 0
 301 309 299 293 299 277 c 0
 299 195 347 113 420 77 c 0
 441 67 466 62 491 62 c 0
 519 62 546 68 565 81 c 0
 603 106 621 129 629 161 c 0
 632 171 633 180 633 189 c 0
 633 230 608 264 569 273 c 0
 565 274 561 274 557 274 c 0
 535 274 514 259 514 242 c 0
 514 239 514 237 515 235 c 0
 518 228 524 221 528 221 c 0
 540 221 548 212 548 201 c 0
 548 197 547 192 544 187 c 0
 540 179 533 170 529 168 c 0
 524 164 517 163 509 163 c 0
 482 163 445 183 434 208 c 0
 428 224 425 239 425 254 c 0
 425 319 478 376 556 382 c 0
 564 383 572 383 579 383 c 0
 623 383 654 370 689 338 c 0
 740 293 762 245 763 179 c 0
 763 177 763 175 763 172 c 0
 763 71 717 -8 626 -64 c 0
 564 -102 530 -111 454 -114 c 0
 446 -114 439 -114 432 -114 c 0
 392 -114 371 -111 337 -101 c 0
EndSplineSet
Validated: 1
EndChar

StartChar: h
Encoding: 104 104 46
Width: 600
Flags: W
HStem: 80 109<216.52 345.652> 411 109<221.986 347.68>
VStem: 379 111<224.265 376.645>
LayerCount: 2
Fore
SplineSet
297 520 m 0
 335 520 369 510 397 492 c 0
 463 449 490 373 490 302 c 0
 490 230 463 154 398 110 c 0
 369 91 334 80 294 80 c 0
 247 80 193 95 138 127 c 0
 121 137 110 155 110 175 c 0
 110 185 113 195 118 203 c 0
 127 220 145 231 166 231 c 0
 176 231 185 228 193 223 c 0
 237 198 269 189 292 189 c 0
 312 189 325 195 336 202 c 0
 361 219 379 259 379 301 c 0
 379 344 361 383 337 399 c 0
 326 406 313 411 295 411 c 0
 272 411 239 402 194 374 c 0
 186 369 176 366 166 366 c 0
 145 366 128 377 118 393 c 0
 113 402 110 411 110 422 c 0
 110 442 121 460 137 469 c 0
 193 503 248 520 297 520 c 0
EndSplineSet
Validated: 1
EndChar

StartChar: i
Encoding: 105 105 47
Width: 1000
Flags: W
HStem: -170 120<353.272 589.017> 225 153<138 807> 640 130<354.983 587.377>
VStem: 0 940<228.556 371.444>
LayerCount: 2
Fore
SplineSet
470 770 m 0
 729 770 940 559 940 300 c 0
 940 41 729 -170 470 -170 c 0
 211 -170 0 41 0 300 c 0
 0 559 211 770 470 770 c 0
472 640 m 0
 311 640 176 528 138 378 c 1
 138 378 435 378 634 378 c 0
 733 378 807 378 807 378 c 1
 770 528 634 640 472 640 c 0
135 225 m 1
 167 68 306 -50 472 -50 c 0
 639 -50 778 68 810 225 c 1
 135 225 l 1
EndSplineSet
Validated: 1
EndChar

StartChar: j
Encoding: 106 106 48
Width: 1000
Flags: W
HStem: -177 85<315.642 458 542 684.358> 22 147<368.004 458 542 628.074> 485 91<444.906 549.518>
VStem: 302 84<319.161 407.185> 458 84<-92 21.6468> 581 117<362.736 453.833>
LayerCount: 2
Fore
SplineSet
493 576 m 0
 494 576 495 576 495 576 c 0
 579 576 663 524 689 428 c 0
 693 410 698 386 698 364 c 0
 698 337 690 312 663 306 c 1
 662 306 660 306 659 306 c 0
 607 306 602 381 581 422 c 1
 566 460 531 485 497 485 c 0
 483 485 469 481 456 472 c 0
 414 444 398 388 386 339 c 1
 379 320 364 311 349 311 c 0
 326 311 302 330 302 359 c 0
 302 360 l 0
 302 363 302 366 302 369 c 0
 302 461 360 545 436 566 c 0
 455 572 474 575 493 576 c 0
112 317 m 0
 113 317 115 317 116 317 c 0
 126 317 135 314 144 307 c 0
 199 271 251 230 314 209 c 0
 365 191 416 169 471 169 c 0
 474 169 478 169 481 169 c 1
 488 169 495 169 502 169 c 0
 547 169 592 175 634 193 c 1
 702 214 766 247 822 291 c 0
 839 305 862 316 883 316 c 0
 897 316 910 312 921 302 c 0
 943 286 962 260 962 233 c 0
 962 230 961 228 961 225 c 1
 936 181 891 154 851 125 c 0
 760 64 652 30 542 22 c 1
 542 -92 l 1
 647 -92 l 2
 671 -92 690 -111 690 -134 c 0
 690 -158 671 -177 647 -177 c 2
 353 -177 l 2
 329 -177 310 -158 310 -134 c 0
 310 -111 329 -92 353 -92 c 2
 458 -92 l 1
 458 20 l 1
 440 21 422 23 405 25 c 0
 392 26 380 28 368 31 c 0
 260 53 155 99 72 173 c 0
 52 190 39 215 39 241 c 0
 39 253 42 266 49 277 c 0
 62 296 87 315 112 317 c 0
EndSplineSet
Validated: 1
EndChar

StartChar: k
Encoding: 107 107 49
Width: 600
Flags: W
HStem: -164 21G<132.5 165.5> 744 20G<132.5 165.5> 744 20G<132.5 165.5>
VStem: 90 118<-150.255 303.998 447 750.255> 405 105<216.692 368.756>
LayerCount: 2
Fore
SplineSet
149 764 m 0xd8
 182 764 208 737 208 704 c 2
 208 447 l 1
 226 463 247 476 270 484 c 0
 281 488 293 491 306 493 c 0
 315 495 325 495 335 495 c 0
 337 495 339 495 341 495 c 0
 360 495 378 491 395 484 c 0
 396 484 397 484 398 483 c 0
 405 481 412 477 418 474 c 0
 420 473 422 471 424 470 c 0
 427 468 430 466 434 463 c 0
 439 460 443 456 448 452 c 0
 450 450 451 448 453 447 c 0
 464 435 474 422 482 408 c 0
 483 407 483 406 484 405 c 0
 490 394 495 382 499 370 c 0
 501 365 502 359 503 354 c 0
 504 350 505 345 506 341 c 0
 508 333 509 325 509 316 c 0
 510 313 510 308 510 304 c 0
 510 292 510 279 508 267 c 0
 508 265 508 263 507 261 c 0
 506 254 505 248 504 241 c 0
 499 221 492 201 483 182 c 0
 470 157 454 132 438 109 c 0
 432 102 427 95 422 87 c 0
 412 75 403 62 393 51 c 0
 392 50 391 49 390 48 c 0
 387 45 384 42 381 39 c 0
 376 34 370 31 364 30 c 0
 363 29 l 0
 354 27 345 28 337 30 c 0
 322 35 309 45 302 58 c 0
 301 59 301 60 301 61 c 0
 296 70 295 81 298 91 c 0
 298 96 301 99 303 103 c 0
 305 106 307 109 309 112 c 0
 311 114 313 117 314 120 c 0
 326 136 339 152 351 168 c 0
 357 176 363 184 368 192 c 0
 374 201 380 210 385 220 c 0
 395 239 402 260 404 281 c 0
 405 287 405 293 405 299 c 0
 405 312 403 326 399 338 c 0
 398 343 395 347 393 352 c 0
 390 362 383 370 375 376 c 0
 362 386 346 391 329 391 c 0
 322 390 315 389 308 387 c 0
 301 384 295 381 290 377 c 0
 275 367 264 354 254 340 c 0
 245 328 238 316 230 304 c 0
 226 298 223 291 220 285 c 0
 216 279 212 272 208 266 c 1
 208 -104 l 2
 208 -137 182 -164 149 -164 c 0
 116 -164 90 -137 90 -104 c 2
 90 704 l 2
 90 737 116 764 149 764 c 0xd8
EndSplineSet
Validated: 1
EndChar

StartChar: l
Encoding: 108 108 50
Width: 600
Flags: W
HStem: -164 21G<85 117.5> 426 200<278.935 402.642> 744 20G<85 117.5> 744 20G<85 117.5>
VStem: 42 119<-150.255 750.255> 241 200<464.358 587.642>
LayerCount: 2
Fore
SplineSet
101 764 m 0xec
 134 764 161 737 161 704 c 2
 161 -104 l 2
 161 -137 134 -164 101 -164 c 0
 69 -164 42 -137 42 -104 c 2
 42 704 l 2
 42 737 69 764 101 764 c 0xec
341 626 m 0
 396 626 441 581 441 526 c 0
 441 471 396 426 341 426 c 0
 285 426 241 471 241 526 c 0
 241 581 285 626 341 626 c 0
EndSplineSet
Validated: 1
EndChar

StartChar: m
Encoding: 109 109 51
Width: 1000
Flags: W
HStem: -170 21G<370.5 629.5> 750 20G<370.5 629.5> 750 20G<370.5 629.5>
VStem: 30 940<160.449 439.551>
LayerCount: 2
Fore
SplineSet
500 770 m 0xd0
 759 770 970 559 970 300 c 0
 970 41 759 -170 500 -170 c 0
 241 -170 30 41 30 300 c 0
 30 559 241 770 500 770 c 0xd0
EndSplineSet
Validated: 1
EndChar

StartChar: n
Encoding: 110 110 52
Width: 1000
Flags: W
HStem: -168 298<417.968 582.032> 470 298<417.968 582.032>
VStem: 32 298<217.968 382.032> 670 298<217.968 382.032>
LayerCount: 2
Fore
SplineSet
500 768 m 0
 759 768 968 559 968 300 c 0
 968 41 759 -168 500 -168 c 0
 241 -168 32 41 32 300 c 0
 32 559 241 768 500 768 c 0
500 470 m 0
 406 470 330 394 330 300 c 0
 330 206 406 130 500 130 c 0
 594 130 670 206 670 300 c 0
 670 394 594 470 500 470 c 0
EndSplineSet
Validated: 1
EndChar

StartChar: o
Encoding: 111 111 53
Width: 1000
Flags: W
HStem: -170 120<353.223 589.099> 61 116<403.348 541.315> 426 113<403.348 541.315> 640 130<353.223 589.099>
VStem: 0 128<179.662 409.686> 231 116<233.348 371.095> 596 113<233.348 371.095> 818 122<179.662 409.686>
LayerCount: 2
Fore
SplineSet
470 539 m 0
 602 539 709 432 709 300 c 0
 709 168 602 61 470 61 c 0
 338 61 231 168 231 300 c 0
 231 432 338 539 470 539 c 0
472 426 m 0
 403 426 347 370 347 302 c 0
 347 233 403 177 472 177 c 0
 541 177 596 233 596 302 c 0
 596 370 541 426 472 426 c 0
470 770 m 0
 729 770 940 559 940 300 c 0
 940 41 729 -170 470 -170 c 0
 211 -170 0 41 0 300 c 0
 -0 559 211 770 470 770 c 0
472 640 m 0
 282 640 128 485 128 295 c 0
 128 105 282 -50 472 -50 c 0
 663 -50 818 105 818 295 c 0
 818 485 663 640 472 640 c 0
EndSplineSet
Validated: 1
EndChar

StartChar: p
Encoding: 112 112 54
Width: 600
Flags: W
HStem: -164 21G<85 117.5> 101 118<161 544.338> 381 118<161 544.338> 744 20G<85 117.5> 744 20G<85 117.5>
VStem: 42 119<-150.255 101 219 381 499 750.255>
LayerCount: 2
Fore
SplineSet
101 764 m 0xf4
 134 764 161 737 161 704 c 2
 161 499 l 1
 499 499 l 2
 531 499 558 473 558 440 c 0
 558 407 531 381 499 381 c 2
 161 381 l 1
 161 219 l 1
 499 219 l 2
 531 219 558 193 558 160 c 0
 558 127 531 101 499 101 c 2
 161 101 l 1
 161 -104 l 2
 161 -137 134 -164 101 -164 c 0
 69 -164 42 -137 42 -104 c 2
 42 704 l 2
 42 737 69 764 101 764 c 0xf4
EndSplineSet
Validated: 1
EndChar

StartChar: r
Encoding: 114 114 55
Width: 1000
Flags: W
HStem: 578 117<422.55 575.309>
VStem: 230 139<396.416 531.518> 630 140<395.157 529.5>
LayerCount: 2
Fore
SplineSet
76 -96 m 0
 67 -93 63 -87 62 -77 c 0
 61 -68 64 -59 70 -50 c 0
 72 -47 80 -38 86 -31 c 0
 112 -6 142 17 277 113 c 0
 311 137 353 167 370 180 c 2
 403 203 l 1
 398 207 l 2
 353 245 316 282 290 315 c 0
 270 340 251 373 242 398 c 0
 234 420 230 443 230 465 c 0
 230 509 246 551 277 590 c 0
 286 601 308 623 319 632 c 0
 333 643 350 654 367 662 c 0
 398 677 413 683 466 692 c 0
 475 694 487 695 498 695 c 0
 507 695 517 694 525 693 c 0
 576 684 602 677 633 662 c 0
 651 653 659 648 675 636 c 0
 689 626 713 603 723 590 c 0
 754 551 770 509 770 466 c 0
 770 463 770 461 770 458 c 0
 768 404 743 352 692 294 c 0
 673 272 634 235 606 210 c 2
 597 203 l 1
 600 202 l 2
 601 201 613 192 626 182 c 0
 649 166 678 145 775 76 c 0
 878 2 916 -28 931 -51 c 0
 936 -59 939 -67 939 -75 c 0
 939 -83 935 -91 928 -94 c 0
 923 -96 922 -97 912 -97 c 0
 899 -96 886 -93 865 -86 c 0
 802 -63 684 3 572 78 c 0
 548 94 514 118 503 125 c 2
 500 128 l 1
 479 113 l 2
 362 29 209 -59 135 -86 c 0
 115 -93 96 -97 84 -97 c 0
 81 -97 78 -97 76 -96 c 0
523 299 m 0
 540 314 567 341 579 354 c 0
 614 396 630 430 630 466 c 0
 630 468 630 470 630 472 c 0
 630 488 627 497 622 509 c 0
 608 538 588 554 547 569 c 0
 534 575 520 578 505 578 c 0
 485 578 464 573 443 565 c 0
 408 552 391 538 379 513 c 0
 372 501 369 485 369 469 c 0
 369 461 370 452 372 443 c 0
 381 398 418 349 487 290 c 2
 500 279 l 1
 505 283 l 2
 508 285 516 293 523 299 c 0
EndSplineSet
Validated: 1
EndChar

StartChar: s
Encoding: 115 115 56
Width: 1000
Flags: W
HStem: 28 138<361.214 636.98> 326 246<432.883 570.801>
VStem: 378 247<380.199 517.801>
LayerCount: 2
Fore
SplineSet
502 572 m 0
 570 572 625 517 625 449 c 0
 625 381 570 326 502 326 c 0
 434 326 378 381 378 449 c 0
 378 517 434 572 502 572 c 0
117 325 m 1
 133 325 149 315 179 293 c 0
 189 286 199 278 209 272 c 0
 288 206 389 166 500 166 c 0
 623 166 734 215 816 295 c 1
 843 315 864 324 883 324 c 0
 897 324 910 320 923 310 c 0
 943 296 960 262 960 239 c 0
 960 236 960 233 959 230 c 0
 953 203 863 133 785 94 c 0
 698 51 588 28 486 28 c 0
 445 28 405 31 369 39 c 0
 206 75 54 166 41 235 c 0
 40 239 40 244 40 248 c 0
 40 276 56 302 85 316 c 0
 98 322 107 325 117 325 c 1
EndSplineSet
Validated: 1
EndChar

StartChar: t
Encoding: 116 116 57
Width: 600
Flags: W
HStem: -164 21G<85 117.5> 227 118<161 544.338> 426 200<278.935 402.642> 744 20G<85 117.5> 744 20G<85 117.5>
VStem: 42 119<-150.255 227 345 750.255> 241 200<464.358 587.642>
LayerCount: 2
Fore
SplineSet
101 764 m 0xf6
 134 764 161 737 161 704 c 2
 161 345 l 1
 499 345 l 2
 531 345 558 319 558 286 c 0
 558 253 531 227 499 227 c 2
 161 227 l 1
 161 -104 l 2
 161 -137 134 -164 101 -164 c 0
 69 -164 42 -137 42 -104 c 2
 42 704 l 2
 42 737 69 764 101 764 c 0xf6
341 626 m 0
 396 626 441 581 441 526 c 0
 441 471 396 426 341 426 c 0
 285 426 241 471 241 526 c 0
 241 581 285 626 341 626 c 0
EndSplineSet
Validated: 1
EndChar

StartChar: u
Encoding: 117 117 58
Width: 1000
Flags: W
HStem: -170 120<353.223 589.099> 180 247<405.199 542.801> 640 130<353.223 589.099>
VStem: 0 128<179.662 409.686> 351 246<234.199 372.557> 818 122<179.662 409.686>
LayerCount: 2
Fore
SplineSet
470 770 m 0
 729 770 940 559 940 300 c 0
 940 41 729 -170 470 -170 c 0
 211 -170 0 41 0 300 c 0
 0 559 211 770 470 770 c 0
472 640 m 0
 282 640 128 485 128 295 c 0
 128 105 282 -50 472 -50 c 0
 663 -50 818 105 818 295 c 0
 818 485 663 640 472 640 c 0
474 427 m 0
 542 427 597 372 597 303 c 0
 597 235 542 180 474 180 c 0
 406 180 351 235 351 303 c 0
 351 372 406 427 474 427 c 0
EndSplineSet
Validated: 1
EndChar

StartChar: v
Encoding: 118 118 59
Width: 1000
Flags: W
HStem: -177 85<315.642 458 542 684.358> 9 136<361.368 458 542 637.634> 296 138<361.214 637.424> 573 20G<109.5 125 873 889>
VStem: 458 84<-92 8.59679>
LayerCount: 2
Fore
SplineSet
117 593 m 0
 133 593 149 584 178 561 c 0
 188 554 199 547 209 540 c 0
 288 474 389 434 500 434 c 0
 623 434 734 483 816 563 c 1
 843 583 864 593 882 593 c 0
 896 593 909 588 923 578 c 0
 943 564 960 530 960 507 c 0
 960 504 960 501 959 498 c 0
 952 471 863 402 785 363 c 0
 699 320 589 296 487 296 c 0
 446 296 406 300 369 308 c 0
 206 343 54 434 41 503 c 0
 40 507 40 512 40 516 c 0
 40 544 56 570 85 584 c 0
 96 589 105 593 114 593 c 0
 115 593 116 593 117 593 c 0
117 304 m 0
 133 304 149 294 179 272 c 0
 189 264 199 257 209 250 c 0
 288 185 389 145 500 145 c 0
 623 145 734 194 816 274 c 1
 843 294 864 303 883 303 c 0
 897 303 910 299 923 289 c 0
 943 274 960 241 960 218 c 0
 960 215 960 212 959 209 c 0
 953 182 863 112 785 73 c 0
 714 38 628 16 542 9 c 1
 542 -92 l 1
 647 -92 l 2
 671 -92 690 -111 690 -134 c 0
 690 -158 671 -177 647 -177 c 2
 353 -177 l 2
 329 -177 310 -158 310 -134 c 0
 310 -111 329 -92 353 -92 c 2
 458 -92 l 1
 458 7 l 1
 427 9 397 12 369 18 c 0
 206 53 54 144 41 214 c 0
 40 218 40 222 40 227 c 0
 40 255 57 281 85 295 c 0
 98 301 107 304 117 304 c 0
EndSplineSet
Validated: 1
EndChar

StartChar: w
Encoding: 119 119 60
Width: 600
Flags: W
HStem: 177 246<231.199 368.801>
VStem: 177 246<231.199 368.801>
LayerCount: 2
Fore
SplineSet
300 423 m 0
 368 423 423 368 423 300 c 0
 423 232 368 177 300 177 c 0
 232 177 177 232 177 300 c 0
 177 368 232 423 300 423 c 0
EndSplineSet
Validated: 1
EndChar

StartChar: y
Encoding: 121 121 61
Width: 600
Flags: W
HStem: 245 110<66.104 533.896>
LayerCount: 2
Fore
SplineSet
111 355 m 2
 489 355 l 1
 520 355 545 331 545 300 c 0
 545 269 520 245 489 245 c 2
 111 245 l 1
 80 245 55 269 55 300 c 0
 55 331 80 355 111 355 c 2
EndSplineSet
Validated: 1
EndChar

StartChar: z
Encoding: 122 122 62
Width: 1000
Flags: W
HStem: -177 85<315.642 458 542 684.358> 29 137<361.368 458 542 637.634> 326 246<432.883 570.801>
VStem: 378 247<380.199 517.801> 458 84<-92 29>
LayerCount: 2
Fore
SplineSet
502 572 m 0xf0
 570 572 625 517 625 449 c 0
 625 381 570 326 502 326 c 0
 434 326 378 381 378 449 c 0
 378 517 434 572 502 572 c 0xf0
117 325 m 0
 133 325 149 315 179 293 c 0
 189 286 199 278 209 272 c 0
 288 206 389 166 500 166 c 0
 623 166 734 215 816 295 c 1
 843 315 864 324 883 324 c 0
 897 324 910 320 923 310 c 0
 943 296 960 262 960 239 c 0
 960 236 960 233 959 230 c 0
 953 203 863 133 785 94 c 0
 714 59 628 37 542 30 c 1
 542 -92 l 1
 647 -92 l 2
 671 -92 690 -111 690 -134 c 0
 690 -158 671 -177 647 -177 c 2
 353 -177 l 2
 329 -177 310 -158 310 -134 c 0
 310 -111 329 -92 353 -92 c 2
 458 -92 l 1
 458 29 l 1xe8
 427 30 397 33 369 39 c 0
 206 75 54 166 41 235 c 0
 40 239 40 244 40 248 c 0
 40 276 56 302 85 316 c 0
 98 322 107 325 117 325 c 0
EndSplineSet
Validated: 1
EndChar

StartChar: Scircumflex
Encoding: 348 348 63
Width: 1000
HStem: 20 149<368.004 626.49> 485 91<444.906 549.518>
VStem: 302 84<319.161 407.185> 581 117<362.736 453.833>
LayerCount: 2
Fore
SplineSet
493 576 m 0
 494 576 495 576 495 576 c 0
 579 576 663 524 689 428 c 0
 693 410 698 386 698 364 c 0
 698 337 690 312 663 306 c 1
 662 306 660 306 659 306 c 0
 607 306 602 381 581 422 c 1
 566 460 531 485 497 485 c 0
 483 485 469 481 456 472 c 0
 414 444 398 388 386 339 c 1
 379 320 364 311 349 311 c 0
 326 311 302 330 302 359 c 0
 302 360 l 0
 302 363 302 366 302 369 c 0
 302 461 360 545 436 566 c 0
 455 572 474 575 493 576 c 0
112 317 m 0
 113 317 115 317 116 317 c 0
 126 317 135 314 144 307 c 0
 199 271 251 230 314 209 c 0
 365 191 416 169 471 169 c 0
 474 169 478 169 481 169 c 1
 488 169 495 169 502 169 c 0
 547 169 592 175 634 193 c 1
 702 214 766 247 822 291 c 0
 839 305 862 316 883 316 c 0
 897 316 910 312 921 302 c 0
 943 286 962 260 962 233 c 0
 962 230 961 228 961 225 c 1
 936 181 891 154 851 125 c 0
 746 55 617 20 490 20 c 0
 461 20 433 22 405 25 c 0
 392 26 380 28 368 31 c 0
 260 53 155 99 72 173 c 0
 52 190 39 215 39 241 c 0
 39 253 42 266 49 277 c 0
 62 296 87 315 112 317 c 0
EndSplineSet
Validated: 1
EndChar

StartChar: scircumflex
Encoding: 349 349 64
Width: 1000
Flags: W
HStem: 20 149<368.004 626.49> 485 91<444.906 549.518>
VStem: 302 84<319.161 407.185> 581 117<362.736 453.833>
LayerCount: 2
Fore
SplineSet
493 576 m 0
 494 576 495 576 495 576 c 0
 579 576 663 524 689 428 c 0
 693 410 698 386 698 364 c 0
 698 337 690 312 663 306 c 1
 662 306 660 306 659 306 c 0
 607 306 602 381 581 422 c 1
 566 460 531 485 497 485 c 0
 483 485 469 481 456 472 c 0
 414 444 398 388 386 339 c 1
 379 320 364 311 349 311 c 0
 326 311 302 330 302 359 c 0
 302 360 l 0
 302 363 302 366 302 369 c 0
 302 461 360 545 436 566 c 0
 455 572 474 575 493 576 c 0
112 317 m 0
 113 317 115 317 116 317 c 0
 126 317 135 314 144 307 c 0
 199 271 251 230 314 209 c 0
 365 191 416 169 471 169 c 0
 474 169 478 169 481 169 c 1
 488 169 495 169 502 169 c 0
 547 169 592 175 634 193 c 1
 702 214 766 247 822 291 c 0
 839 305 862 316 883 316 c 0
 897 316 910 312 921 302 c 0
 943 286 962 260 962 233 c 0
 962 230 961 228 961 225 c 1
 936 181 891 154 851 125 c 0
 746 55 617 20 490 20 c 0
 461 20 433 22 405 25 c 0
 392 26 380 28 368 31 c 0
 260 53 155 99 72 173 c 0
 52 190 39 215 39 241 c 0
 39 253 42 266 49 277 c 0
 62 296 87 315 112 317 c 0
EndSplineSet
Validated: 1
EndChar

StartChar: uni0416
Encoding: 1046 1046 65
Width: 1000
Flags: W
HStem: -177 85<315.642 458 542 684.358> 22 147<368.004 458 542 628.074> 485 91<444.906 549.518>
VStem: 302 84<319.161 407.185> 458 84<-92 21.6468> 581 117<362.736 453.833>
LayerCount: 2
Fore
SplineSet
493 576 m 0
 494 576 495 576 495 576 c 0
 579 576 663 524 689 428 c 0
 693 410 698 386 698 364 c 0
 698 337 690 312 663 306 c 1
 662 306 660 306 659 306 c 0
 607 306 602 381 581 422 c 1
 566 460 531 485 497 485 c 0
 483 485 469 481 456 472 c 0
 414 444 398 388 386 339 c 1
 379 320 364 311 349 311 c 0
 326 311 302 330 302 359 c 0
 302 360 l 0
 302 363 302 366 302 369 c 0
 302 461 360 545 436 566 c 0
 455 572 474 575 493 576 c 0
112 317 m 0
 113 317 115 317 116 317 c 0
 126 317 135 314 144 307 c 0
 199 271 251 230 314 209 c 0
 365 191 416 169 471 169 c 0
 474 169 478 169 481 169 c 1
 488 169 495 169 502 169 c 0
 547 169 592 175 634 193 c 1
 702 214 766 247 822 291 c 0
 839 305 862 316 883 316 c 0
 897 316 910 312 921 302 c 0
 943 286 962 260 962 233 c 0
 962 230 961 228 961 225 c 1
 936 181 891 154 851 125 c 0
 760 64 652 30 542 22 c 1
 542 -92 l 1
 647 -92 l 2
 671 -92 690 -111 690 -134 c 0
 690 -158 671 -177 647 -177 c 2
 353 -177 l 2
 329 -177 310 -158 310 -134 c 0
 310 -111 329 -92 353 -92 c 2
 458 -92 l 1
 458 20 l 1
 440 21 422 23 405 25 c 0
 392 26 380 28 368 31 c 0
 260 53 155 99 72 173 c 0
 52 190 39 215 39 241 c 0
 39 253 42 266 49 277 c 0
 62 296 87 315 112 317 c 0
EndSplineSet
Validated: 1
EndChar

StartChar: uni0429
Encoding: 1065 1065 66
Width: 1000
Flags: W
HStem: 20 149<368.004 626.49> 485 91<444.906 549.518>
VStem: 302 84<319.161 407.185> 581 117<362.736 453.833>
LayerCount: 2
Fore
SplineSet
493 576 m 0
 494 576 495 576 495 576 c 0
 579 576 663 524 689 428 c 0
 693 410 698 386 698 364 c 0
 698 337 690 312 663 306 c 1
 662 306 660 306 659 306 c 0
 607 306 602 381 581 422 c 1
 566 460 531 485 497 485 c 0
 483 485 469 481 456 472 c 0
 414 444 398 388 386 339 c 1
 379 320 364 311 349 311 c 0
 326 311 302 330 302 359 c 0
 302 360 l 0
 302 363 302 366 302 369 c 0
 302 461 360 545 436 566 c 0
 455 572 474 575 493 576 c 0
112 317 m 0
 113 317 115 317 116 317 c 0
 126 317 135 314 144 307 c 0
 199 271 251 230 314 209 c 0
 365 191 416 169 471 169 c 0
 474 169 478 169 481 169 c 1
 488 169 495 169 502 169 c 0
 547 169 592 175 634 193 c 1
 702 214 766 247 822 291 c 0
 839 305 862 316 883 316 c 0
 897 316 910 312 921 302 c 0
 943 286 962 260 962 233 c 0
 962 230 961 228 961 225 c 1
 936 181 891 154 851 125 c 0
 746 55 617 20 490 20 c 0
 461 20 433 22 405 25 c 0
 392 26 380 28 368 31 c 0
 260 53 155 99 72 173 c 0
 52 190 39 215 39 241 c 0
 39 253 42 266 49 277 c 0
 62 296 87 315 112 317 c 0
EndSplineSet
Validated: 1
EndChar

StartChar: uni0436
Encoding: 1078 1078 67
Width: 1000
Flags: W
HStem: -177 85<315.642 458 542 684.358> 22 147<368.004 458 542 628.074> 485 91<444.906 549.518>
VStem: 302 84<319.161 407.185> 458 84<-92 21.6468> 581 117<362.736 453.833>
LayerCount: 2
Fore
SplineSet
493 576 m 0
 494 576 495 576 495 576 c 0
 579 576 663 524 689 428 c 0
 693 410 698 386 698 364 c 0
 698 337 690 312 663 306 c 1
 662 306 660 306 659 306 c 0
 607 306 602 381 581 422 c 1
 566 460 531 485 497 485 c 0
 483 485 469 481 456 472 c 0
 414 444 398 388 386 339 c 1
 379 320 364 311 349 311 c 0
 326 311 302 330 302 359 c 0
 302 360 l 0
 302 363 302 366 302 369 c 0
 302 461 360 545 436 566 c 0
 455 572 474 575 493 576 c 0
112 317 m 0
 113 317 115 317 116 317 c 0
 126 317 135 314 144 307 c 0
 199 271 251 230 314 209 c 0
 365 191 416 169 471 169 c 0
 474 169 478 169 481 169 c 1
 488 169 495 169 502 169 c 0
 547 169 592 175 634 193 c 1
 702 214 766 247 822 291 c 0
 839 305 862 316 883 316 c 0
 897 316 910 312 921 302 c 0
 943 286 962 260 962 233 c 0
 962 230 961 228 961 225 c 1
 936 181 891 154 851 125 c 0
 760 64 652 30 542 22 c 1
 542 -92 l 1
 647 -92 l 2
 671 -92 690 -111 690 -134 c 0
 690 -158 671 -177 647 -177 c 2
 353 -177 l 2
 329 -177 310 -158 310 -134 c 0
 310 -111 329 -92 353 -92 c 2
 458 -92 l 1
 458 20 l 1
 440 21 422 23 405 25 c 0
 392 26 380 28 368 31 c 0
 260 53 155 99 72 173 c 0
 52 190 39 215 39 241 c 0
 39 253 42 266 49 277 c 0
 62 296 87 315 112 317 c 0
EndSplineSet
Validated: 1
EndChar

StartChar: uni0449
Encoding: 1097 1097 68
Width: 1000
Flags: W
HStem: 20 149<368.004 626.49> 485 91<444.906 549.518>
VStem: 302 84<319.161 407.185> 581 117<362.736 453.833>
LayerCount: 2
Fore
SplineSet
493 576 m 0
 494 576 495 576 495 576 c 0
 579 576 663 524 689 428 c 0
 693 410 698 386 698 364 c 0
 698 337 690 312 663 306 c 1
 662 306 660 306 659 306 c 0
 607 306 602 381 581 422 c 1
 566 460 531 485 497 485 c 0
 483 485 469 481 456 472 c 0
 414 444 398 388 386 339 c 1
 379 320 364 311 349 311 c 0
 326 311 302 330 302 359 c 0
 302 360 l 0
 302 363 302 366 302 369 c 0
 302 461 360 545 436 566 c 0
 455 572 474 575 493 576 c 0
112 317 m 0
 113 317 115 317 116 317 c 0
 126 317 135 314 144 307 c 0
 199 271 251 230 314 209 c 0
 365 191 416 169 471 169 c 0
 474 169 478 169 481 169 c 1
 488 169 495 169 502 169 c 0
 547 169 592 175 634 193 c 1
 702 214 766 247 822 291 c 0
 839 305 862 316 883 316 c 0
 897 316 910 312 921 302 c 0
 943 286 962 260 962 233 c 0
 962 230 961 228 961 225 c 1
 936 181 891 154 851 125 c 0
 746 55 617 20 490 20 c 0
 461 20 433 22 405 25 c 0
 392 26 380 28 368 31 c 0
 260 53 155 99 72 173 c 0
 52 190 39 215 39 241 c 0
 39 253 42 266 49 277 c 0
 62 296 87 315 112 317 c 0
EndSplineSet
Validated: 1
EndChar

StartChar: Scedilla
Encoding: 350 350 69
Width: 1000
Flags: W
HStem: 20 149<368.004 626.49> 485 91<444.906 549.518>
VStem: 302 84<319.161 407.185> 581 117<362.736 453.833>
LayerCount: 2
Fore
SplineSet
493 576 m 0
 494 576 495 576 495 576 c 0
 579 576 663 524 689 428 c 0
 693 410 698 386 698 364 c 0
 698 337 690 312 663 306 c 1
 662 306 660 306 659 306 c 0
 607 306 602 381 581 422 c 1
 566 460 531 485 497 485 c 0
 483 485 469 481 456 472 c 0
 414 444 398 388 386 339 c 1
 379 320 364 311 349 311 c 0
 326 311 302 330 302 359 c 0
 302 360 l 0
 302 363 302 366 302 369 c 0
 302 461 360 545 436 566 c 0
 455 572 474 575 493 576 c 0
112 317 m 0
 113 317 115 317 116 317 c 0
 126 317 135 314 144 307 c 0
 199 271 251 230 314 209 c 0
 365 191 416 169 471 169 c 0
 474 169 478 169 481 169 c 1
 488 169 495 169 502 169 c 0
 547 169 592 175 634 193 c 1
 702 214 766 247 822 291 c 0
 839 305 862 316 883 316 c 0
 897 316 910 312 921 302 c 0
 943 286 962 260 962 233 c 0
 962 230 961 228 961 225 c 1
 936 181 891 154 851 125 c 0
 746 55 617 20 490 20 c 0
 461 20 433 22 405 25 c 0
 392 26 380 28 368 31 c 0
 260 53 155 99 72 173 c 0
 52 190 39 215 39 241 c 0
 39 253 42 266 49 277 c 0
 62 296 87 315 112 317 c 0
EndSplineSet
Validated: 1
EndChar

StartChar: scedilla
Encoding: 351 351 70
Width: 1000
Flags: W
HStem: 20 149<368.004 626.49> 485 91<444.906 549.518>
VStem: 302 84<319.161 407.185> 581 117<362.736 453.833>
LayerCount: 2
Fore
SplineSet
493 576 m 0
 494 576 495 576 495 576 c 0
 579 576 663 524 689 428 c 0
 693 410 698 386 698 364 c 0
 698 337 690 312 663 306 c 1
 662 306 660 306 659 306 c 0
 607 306 602 381 581 422 c 1
 566 460 531 485 497 485 c 0
 483 485 469 481 456 472 c 0
 414 444 398 388 386 339 c 1
 379 320 364 311 349 311 c 0
 326 311 302 330 302 359 c 0
 302 360 l 0
 302 363 302 366 302 369 c 0
 302 461 360 545 436 566 c 0
 455 572 474 575 493 576 c 0
112 317 m 0
 113 317 115 317 116 317 c 0
 126 317 135 314 144 307 c 0
 199 271 251 230 314 209 c 0
 365 191 416 169 471 169 c 0
 474 169 478 169 481 169 c 1
 488 169 495 169 502 169 c 0
 547 169 592 175 634 193 c 1
 702 214 766 247 822 291 c 0
 839 305 862 316 883 316 c 0
 897 316 910 312 921 302 c 0
 943 286 962 260 962 233 c 0
 962 230 961 228 961 225 c 1
 936 181 891 154 851 125 c 0
 746 55 617 20 490 20 c 0
 461 20 433 22 405 25 c 0
 392 26 380 28 368 31 c 0
 260 53 155 99 72 173 c 0
 52 190 39 215 39 241 c 0
 39 253 42 266 49 277 c 0
 62 296 87 315 112 317 c 0
EndSplineSet
Validated: 1
EndChar

StartChar: Scaron
Encoding: 352 352 71
Width: 1000
Flags: W
HStem: 20 149<368.004 626.49> 485 91<444.906 549.518>
VStem: 302 84<319.161 407.185> 581 117<362.736 453.833>
LayerCount: 2
Fore
SplineSet
493 576 m 0
 494 576 495 576 495 576 c 0
 579 576 663 524 689 428 c 0
 693 410 698 386 698 364 c 0
 698 337 690 312 663 306 c 1
 662 306 660 306 659 306 c 0
 607 306 602 381 581 422 c 1
 566 460 531 485 497 485 c 0
 483 485 469 481 456 472 c 0
 414 444 398 388 386 339 c 1
 379 320 364 311 349 311 c 0
 326 311 302 330 302 359 c 0
 302 360 l 0
 302 363 302 366 302 369 c 0
 302 461 360 545 436 566 c 0
 455 572 474 575 493 576 c 0
112 317 m 0
 113 317 115 317 116 317 c 0
 126 317 135 314 144 307 c 0
 199 271 251 230 314 209 c 0
 365 191 416 169 471 169 c 0
 474 169 478 169 481 169 c 1
 488 169 495 169 502 169 c 0
 547 169 592 175 634 193 c 1
 702 214 766 247 822 291 c 0
 839 305 862 316 883 316 c 0
 897 316 910 312 921 302 c 0
 943 286 962 260 962 233 c 0
 962 230 961 228 961 225 c 1
 936 181 891 154 851 125 c 0
 746 55 617 20 490 20 c 0
 461 20 433 22 405 25 c 0
 392 26 380 28 368 31 c 0
 260 53 155 99 72 173 c 0
 52 190 39 215 39 241 c 0
 39 253 42 266 49 277 c 0
 62 296 87 315 112 317 c 0
EndSplineSet
Validated: 1
EndChar

StartChar: scaron
Encoding: 353 353 72
Width: 1000
Flags: W
HStem: 20 149<368.004 626.49> 485 91<444.906 549.518>
VStem: 302 84<319.161 407.185> 581 117<362.736 453.833>
LayerCount: 2
Fore
SplineSet
493 576 m 0
 494 576 495 576 495 576 c 0
 579 576 663 524 689 428 c 0
 693 410 698 386 698 364 c 0
 698 337 690 312 663 306 c 1
 662 306 660 306 659 306 c 0
 607 306 602 381 581 422 c 1
 566 460 531 485 497 485 c 0
 483 485 469 481 456 472 c 0
 414 444 398 388 386 339 c 1
 379 320 364 311 349 311 c 0
 326 311 302 330 302 359 c 0
 302 360 l 0
 302 363 302 366 302 369 c 0
 302 461 360 545 436 566 c 0
 455 572 474 575 493 576 c 0
112 317 m 0
 113 317 115 317 116 317 c 0
 126 317 135 314 144 307 c 0
 199 271 251 230 314 209 c 0
 365 191 416 169 471 169 c 0
 474 169 478 169 481 169 c 1
 488 169 495 169 502 169 c 0
 547 169 592 175 634 193 c 1
 702 214 766 247 822 291 c 0
 839 305 862 316 883 316 c 0
 897 316 910 312 921 302 c 0
 943 286 962 260 962 233 c 0
 962 230 961 228 961 225 c 1
 936 181 891 154 851 125 c 0
 746 55 617 20 490 20 c 0
 461 20 433 22 405 25 c 0
 392 26 380 28 368 31 c 0
 260 53 155 99 72 173 c 0
 52 190 39 215 39 241 c 0
 39 253 42 266 49 277 c 0
 62 296 87 315 112 317 c 0
EndSplineSet
Validated: 1
EndChar

StartChar: uni0428
Encoding: 1064 1064 73
Width: 1000
Flags: W
HStem: 20 149<368.004 626.49> 485 91<444.906 549.518>
VStem: 302 84<319.161 407.185> 581 117<362.736 453.833>
LayerCount: 2
Fore
SplineSet
493 576 m 0
 494 576 495 576 495 576 c 0
 579 576 663 524 689 428 c 0
 693 410 698 386 698 364 c 0
 698 337 690 312 663 306 c 1
 662 306 660 306 659 306 c 0
 607 306 602 381 581 422 c 1
 566 460 531 485 497 485 c 0
 483 485 469 481 456 472 c 0
 414 444 398 388 386 339 c 1
 379 320 364 311 349 311 c 0
 326 311 302 330 302 359 c 0
 302 360 l 0
 302 363 302 366 302 369 c 0
 302 461 360 545 436 566 c 0
 455 572 474 575 493 576 c 0
112 317 m 0
 113 317 115 317 116 317 c 0
 126 317 135 314 144 307 c 0
 199 271 251 230 314 209 c 0
 365 191 416 169 471 169 c 0
 474 169 478 169 481 169 c 1
 488 169 495 169 502 169 c 0
 547 169 592 175 634 193 c 1
 702 214 766 247 822 291 c 0
 839 305 862 316 883 316 c 0
 897 316 910 312 921 302 c 0
 943 286 962 260 962 233 c 0
 962 230 961 228 961 225 c 1
 936 181 891 154 851 125 c 0
 746 55 617 20 490 20 c 0
 461 20 433 22 405 25 c 0
 392 26 380 28 368 31 c 0
 260 53 155 99 72 173 c 0
 52 190 39 215 39 241 c 0
 39 253 42 266 49 277 c 0
 62 296 87 315 112 317 c 0
EndSplineSet
Validated: 1
EndChar

StartChar: uni0448
Encoding: 1096 1096 74
Width: 1000
Flags: W
HStem: 20 149<368.004 626.49> 485 91<444.906 549.518>
VStem: 302 84<319.161 407.185> 581 117<362.736 453.833>
LayerCount: 2
Fore
SplineSet
493 576 m 0
 494 576 495 576 495 576 c 0
 579 576 663 524 689 428 c 0
 693 410 698 386 698 364 c 0
 698 337 690 312 663 306 c 1
 662 306 660 306 659 306 c 0
 607 306 602 381 581 422 c 1
 566 460 531 485 497 485 c 0
 483 485 469 481 456 472 c 0
 414 444 398 388 386 339 c 1
 379 320 364 311 349 311 c 0
 326 311 302 330 302 359 c 0
 302 360 l 0
 302 363 302 366 302 369 c 0
 302 461 360 545 436 566 c 0
 455 572 474 575 493 576 c 0
112 317 m 0
 113 317 115 317 116 317 c 0
 126 317 135 314 144 307 c 0
 199 271 251 230 314 209 c 0
 365 191 416 169 471 169 c 0
 474 169 478 169 481 169 c 1
 488 169 495 169 502 169 c 0
 547 169 592 175 634 193 c 1
 702 214 766 247 822 291 c 0
 839 305 862 316 883 316 c 0
 897 316 910 312 921 302 c 0
 943 286 962 260 962 233 c 0
 962 230 961 228 961 225 c 1
 936 181 891 154 851 125 c 0
 746 55 617 20 490 20 c 0
 461 20 433 22 405 25 c 0
 392 26 380 28 368 31 c 0
 260 53 155 99 72 173 c 0
 52 190 39 215 39 241 c 0
 39 253 42 266 49 277 c 0
 62 296 87 315 112 317 c 0
EndSplineSet
Validated: 1
EndChar

StartChar: Zdotaccent
Encoding: 379 379 75
Width: 1000
Flags: W
HStem: -177 85<315.642 458 542 684.358> 22 147<368.004 458 542 628.074> 485 91<444.906 549.518>
VStem: 302 84<319.161 407.185> 458 84<-92 21.6468> 581 117<362.736 453.833>
LayerCount: 2
Fore
SplineSet
493 576 m 0
 494 576 495 576 495 576 c 0
 579 576 663 524 689 428 c 0
 693 410 698 386 698 364 c 0
 698 337 690 312 663 306 c 1
 662 306 660 306 659 306 c 0
 607 306 602 381 581 422 c 1
 566 460 531 485 497 485 c 0
 483 485 469 481 456 472 c 0
 414 444 398 388 386 339 c 1
 379 320 364 311 349 311 c 0
 326 311 302 330 302 359 c 0
 302 360 l 0
 302 363 302 366 302 369 c 0
 302 461 360 545 436 566 c 0
 455 572 474 575 493 576 c 0
112 317 m 0
 113 317 115 317 116 317 c 0
 126 317 135 314 144 307 c 0
 199 271 251 230 314 209 c 0
 365 191 416 169 471 169 c 0
 474 169 478 169 481 169 c 1
 488 169 495 169 502 169 c 0
 547 169 592 175 634 193 c 1
 702 214 766 247 822 291 c 0
 839 305 862 316 883 316 c 0
 897 316 910 312 921 302 c 0
 943 286 962 260 962 233 c 0
 962 230 961 228 961 225 c 1
 936 181 891 154 851 125 c 0
 760 64 652 30 542 22 c 1
 542 -92 l 1
 647 -92 l 2
 671 -92 690 -111 690 -134 c 0
 690 -158 671 -177 647 -177 c 2
 353 -177 l 2
 329 -177 310 -158 310 -134 c 0
 310 -111 329 -92 353 -92 c 2
 458 -92 l 1
 458 20 l 1
 440 21 422 23 405 25 c 0
 392 26 380 28 368 31 c 0
 260 53 155 99 72 173 c 0
 52 190 39 215 39 241 c 0
 39 253 42 266 49 277 c 0
 62 296 87 315 112 317 c 0
EndSplineSet
Validated: 1
EndChar

StartChar: zdotaccent
Encoding: 380 380 76
Width: 1000
Flags: W
HStem: -177 85<315.642 458 542 684.358> 22 147<368.004 458 542 628.074> 485 91<444.906 549.518>
VStem: 302 84<319.161 407.185> 458 84<-92 21.6468> 581 117<362.736 453.833>
LayerCount: 2
Fore
SplineSet
493 576 m 0
 494 576 495 576 495 576 c 0
 579 576 663 524 689 428 c 0
 693 410 698 386 698 364 c 0
 698 337 690 312 663 306 c 1
 662 306 660 306 659 306 c 0
 607 306 602 381 581 422 c 1
 566 460 531 485 497 485 c 0
 483 485 469 481 456 472 c 0
 414 444 398 388 386 339 c 1
 379 320 364 311 349 311 c 0
 326 311 302 330 302 359 c 0
 302 360 l 0
 302 363 302 366 302 369 c 0
 302 461 360 545 436 566 c 0
 455 572 474 575 493 576 c 0
112 317 m 0
 113 317 115 317 116 317 c 0
 126 317 135 314 144 307 c 0
 199 271 251 230 314 209 c 0
 365 191 416 169 471 169 c 0
 474 169 478 169 481 169 c 1
 488 169 495 169 502 169 c 0
 547 169 592 175 634 193 c 1
 702 214 766 247 822 291 c 0
 839 305 862 316 883 316 c 0
 897 316 910 312 921 302 c 0
 943 286 962 260 962 233 c 0
 962 230 961 228 961 225 c 1
 936 181 891 154 851 125 c 0
 760 64 652 30 542 22 c 1
 542 -92 l 1
 647 -92 l 2
 671 -92 690 -111 690 -134 c 0
 690 -158 671 -177 647 -177 c 2
 353 -177 l 2
 329 -177 310 -158 310 -134 c 0
 310 -111 329 -92 353 -92 c 2
 458 -92 l 1
 458 20 l 1
 440 21 422 23 405 25 c 0
 392 26 380 28 368 31 c 0
 260 53 155 99 72 173 c 0
 52 190 39 215 39 241 c 0
 39 253 42 266 49 277 c 0
 62 296 87 315 112 317 c 0
EndSplineSet
Validated: 1
EndChar

StartChar: Zcaron
Encoding: 381 381 77
Width: 1000
Flags: W
HStem: -177 85<315.642 458 542 684.358> 22 147<368.004 458 542 628.074> 485 91<444.906 549.518>
VStem: 302 84<319.161 407.185> 458 84<-92 21.6468> 581 117<362.736 453.833>
LayerCount: 2
Fore
SplineSet
493 576 m 0
 494 576 495 576 495 576 c 0
 579 576 663 524 689 428 c 0
 693 410 698 386 698 364 c 0
 698 337 690 312 663 306 c 1
 662 306 660 306 659 306 c 0
 607 306 602 381 581 422 c 1
 566 460 531 485 497 485 c 0
 483 485 469 481 456 472 c 0
 414 444 398 388 386 339 c 1
 379 320 364 311 349 311 c 0
 326 311 302 330 302 359 c 0
 302 360 l 0
 302 363 302 366 302 369 c 0
 302 461 360 545 436 566 c 0
 455 572 474 575 493 576 c 0
112 317 m 0
 113 317 115 317 116 317 c 0
 126 317 135 314 144 307 c 0
 199 271 251 230 314 209 c 0
 365 191 416 169 471 169 c 0
 474 169 478 169 481 169 c 1
 488 169 495 169 502 169 c 0
 547 169 592 175 634 193 c 1
 702 214 766 247 822 291 c 0
 839 305 862 316 883 316 c 0
 897 316 910 312 921 302 c 0
 943 286 962 260 962 233 c 0
 962 230 961 228 961 225 c 1
 936 181 891 154 851 125 c 0
 760 64 652 30 542 22 c 1
 542 -92 l 1
 647 -92 l 2
 671 -92 690 -111 690 -134 c 0
 690 -158 671 -177 647 -177 c 2
 353 -177 l 2
 329 -177 310 -158 310 -134 c 0
 310 -111 329 -92 353 -92 c 2
 458 -92 l 1
 458 20 l 1
 440 21 422 23 405 25 c 0
 392 26 380 28 368 31 c 0
 260 53 155 99 72 173 c 0
 52 190 39 215 39 241 c 0
 39 253 42 266 49 277 c 0
 62 296 87 315 112 317 c 0
EndSplineSet
Validated: 1
EndChar

StartChar: zcaron
Encoding: 382 382 78
Width: 1000
Flags: W
HStem: -177 85<315.642 458 542 684.358> 22 147<368.004 458 542 628.074> 485 91<444.906 549.518>
VStem: 302 84<319.161 407.185> 458 84<-92 21.6468> 581 117<362.736 453.833>
LayerCount: 2
Fore
SplineSet
493 576 m 0
 494 576 495 576 495 576 c 0
 579 576 663 524 689 428 c 0
 693 410 698 386 698 364 c 0
 698 337 690 312 663 306 c 1
 662 306 660 306 659 306 c 0
 607 306 602 381 581 422 c 1
 566 460 531 485 497 485 c 0
 483 485 469 481 456 472 c 0
 414 444 398 388 386 339 c 1
 379 320 364 311 349 311 c 0
 326 311 302 330 302 359 c 0
 302 360 l 0
 302 363 302 366 302 369 c 0
 302 461 360 545 436 566 c 0
 455 572 474 575 493 576 c 0
112 317 m 0
 113 317 115 317 116 317 c 0
 126 317 135 314 144 307 c 0
 199 271 251 230 314 209 c 0
 365 191 416 169 471 169 c 0
 474 169 478 169 481 169 c 1
 488 169 495 169 502 169 c 0
 547 169 592 175 634 193 c 1
 702 214 766 247 822 291 c 0
 839 305 862 316 883 316 c 0
 897 316 910 312 921 302 c 0
 943 286 962 260 962 233 c 0
 962 230 961 228 961 225 c 1
 936 181 891 154 851 125 c 0
 760 64 652 30 542 22 c 1
 542 -92 l 1
 647 -92 l 2
 671 -92 690 -111 690 -134 c 0
 690 -158 671 -177 647 -177 c 2
 353 -177 l 2
 329 -177 310 -158 310 -134 c 0
 310 -111 329 -92 353 -92 c 2
 458 -92 l 1
 458 20 l 1
 440 21 422 23 405 25 c 0
 392 26 380 28 368 31 c 0
 260 53 155 99 72 173 c 0
 52 190 39 215 39 241 c 0
 39 253 42 266 49 277 c 0
 62 296 87 315 112 317 c 0
EndSplineSet
Validated: 1
EndChar

StartChar: theta
Encoding: 952 952 79
Width: 1000
Flags: W
VStem: 421 158<170 331.648>
LayerCount: 2
Fore
SplineSet
500 356 m 0
 544 356 579 321 579 277 c 2
 579 277 579 229 579 198 c 0
 579 182 579 170 579 170 c 1
 670 186 752 229 816 291 c 1
 843 311 864 321 883 321 c 0
 897 321 910 316 923 306 c 0
 943 292 960 258 960 235 c 0
 960 232 960 229 959 226 c 0
 953 199 863 130 785 91 c 0
 699 48 590 24 488 24 c 0
 446 24 406 28 369 36 c 0
 206 71 54 162 41 232 c 0
 40 236 40 241 40 245 c 0
 40 272 56 298 85 312 c 0
 98 318 107 322 117 322 c 0
 133 321 149 312 179 289 c 0
 189 282 199 275 209 268 c 0
 269 219 342 184 421 170 c 1
 421 277 l 2
 421 321 456 356 500 356 c 0
EndSplineSet
Validated: 1
EndChar

